<svg width="40" height="41" viewBox="0 0 40 41" fill="none" xmlns="http://www.w3.org/2000/svg">
<path d="M15.974 8.86C15.3757 10.3586 14.9275 11.9129 14.636 13.5H25.364C25.0719 11.9128 24.623 10.3585 24.024 8.86C23.422 7.394 22.728 6.272 22.008 5.534C21.292 4.798 20.614 4.5 20 4.5C19.386 4.5 18.708 4.798 17.992 5.534C17.272 6.274 16.578 7.394 15.974 8.86ZM15.782 5.062C15.154 5.914 14.602 6.944 14.126 8.098C13.486 9.658 12.966 11.486 12.602 13.5H5.60801C6.60701 11.4514 8.03112 9.63929 9.78544 8.1843C11.5398 6.72932 13.584 5.66491 15.782 5.062ZM24.22 5.062C24.846 5.914 25.4 6.944 25.874 8.098C26.514 9.658 27.034 11.486 27.398 13.5H34.392C33.393 11.4514 31.9689 9.63929 30.2146 8.1843C28.4602 6.72932 26.418 5.66491 24.22 5.062ZM35.204 15.5H27.7C27.896 17.09 28 18.768 28 20.5C28 22.232 27.896 23.91 27.7 25.5H35.204C35.733 23.8861 36.0017 22.1984 36 20.5C36.0017 18.8016 35.733 17.1139 35.204 15.5ZM34.392 27.5H27.398C27.034 29.514 26.516 31.344 25.874 32.9C25.4467 33.9754 24.8914 34.9955 24.22 35.938C26.4176 35.3348 28.4615 34.2703 30.2155 32.8153C31.9694 31.3604 33.3932 29.5484 34.392 27.5ZM20 36.5C20.614 36.5 21.292 36.202 22.008 35.466C22.728 34.726 23.422 33.606 24.024 32.14C24.623 30.6415 25.0719 29.0872 25.364 27.5H14.636C14.972 29.246 15.43 30.814 15.976 32.14C16.578 33.606 17.272 34.728 17.992 35.466C18.708 36.202 19.386 36.5 20 36.5ZM15.78 35.938C13.5828 35.3346 11.5393 34.2699 9.78567 32.815C8.03207 31.36 6.60858 29.5481 5.61001 27.5H12.604C12.968 29.514 13.486 31.344 14.128 32.9C14.602 34.056 15.156 35.086 15.784 35.938M4.79801 25.5H12.3C12.1006 23.8408 12.0004 22.1712 12 20.5C12 18.768 12.104 17.09 12.3 15.5H4.79601C4.26699 17.1139 3.99829 18.8016 4.00001 20.5C4.00001 22.246 4.28201 23.926 4.79801 25.5ZM14 20.5C14 18.75 14.112 17.07 14.316 15.5H25.684C25.888 17.07 26 18.75 26 20.5C26 22.25 25.888 23.928 25.684 25.5H14.316C14.1008 23.8421 13.9952 22.1718 14 20.5Z" fill="black"/>
</svg>
