<svg width="80" height="80" viewBox="0 0 80 80" fill="none" xmlns="http://www.w3.org/2000/svg">
<rect width="80" height="80" rx="40" fill="#00685E"/>
<g clip-path="url(#clip0_5_255)">
<path d="M36.0293 36.6602C35.7448 37.1178 35.417 37.5322 35.0459 37.9033C34.6748 38.2744 34.2542 38.6084 33.7842 38.9053L34.7305 41.2061L32.541 42.0967L31.5947 39.8145C31.0999 39.9382 30.568 40 29.999 40C29.43 40 28.8981 39.9382 28.4033 39.8145L27.457 42.0967L25.2676 41.2061L26.2139 38.9053C25.7562 38.6208 25.3418 38.293 24.9707 37.9219C24.5996 37.5508 24.2656 37.1302 23.9688 36.6602L21.668 37.6064L20.7773 35.417L23.0596 34.4707C22.9359 33.9759 22.874 33.444 22.874 32.875C22.874 32.306 22.9359 31.7741 23.0596 31.2793L20.7773 30.333L21.668 28.1436L23.9688 29.0898C24.5378 28.1621 25.2861 27.4137 26.2139 26.8447L25.2676 24.5439L27.457 23.6533L28.4033 25.9355C28.8981 25.8118 29.43 25.75 29.999 25.75C30.568 25.75 31.0999 25.8118 31.5947 25.9355L32.541 23.6533L34.7305 24.5439L33.7842 26.8447C34.7119 27.4137 35.4603 28.1621 36.0293 29.0898L38.3301 28.1436L39.2207 30.333L36.9385 31.2793C37.0622 31.7741 37.124 32.306 37.124 32.875C37.124 33.444 37.0622 33.9759 36.9385 34.4707L39.2207 35.417L38.3301 37.6064L36.0293 36.6602ZM29.999 37.625C30.6546 37.625 31.2669 37.5013 31.8359 37.2539C32.4049 37.0065 32.9121 36.6663 33.3574 36.2334C33.8027 35.8005 34.1429 35.2995 34.3779 34.7305C34.613 34.1615 34.7367 33.543 34.749 32.875C34.749 32.2194 34.6253 31.6071 34.3779 31.0381C34.1305 30.4691 33.7904 29.9619 33.3574 29.5166C32.9245 29.0713 32.4235 28.7311 31.8545 28.4961C31.2855 28.2611 30.667 28.1374 29.999 28.125C29.3434 28.125 28.7311 28.2487 28.1621 28.4961C27.5931 28.7435 27.0859 29.0837 26.6406 29.5166C26.1953 29.9495 25.8551 30.4505 25.6201 31.0195C25.3851 31.5885 25.2614 32.207 25.249 32.875C25.249 33.5306 25.3727 34.1429 25.6201 34.7119C25.8675 35.2809 26.2077 35.7881 26.6406 36.2334C27.0736 36.6787 27.5745 37.0189 28.1436 37.2539C28.7126 37.4889 29.3311 37.6126 29.999 37.625ZM56.124 45.9375C56.124 46.6178 56.0374 47.3044 55.8643 47.9971L58.4062 49.0361L57.5156 51.2441L54.9551 50.1865C54.2253 51.3988 53.2604 52.3636 52.0605 53.0811L53.1182 55.623L50.9102 56.5322L49.8711 53.9902C49.1784 54.1634 48.4919 54.25 47.8115 54.25C47.1312 54.25 46.4447 54.1634 45.752 53.9902L44.7129 56.5322L42.5049 55.623L43.5625 53.0811C42.3503 52.3636 41.3854 51.3988 40.668 50.1865L38.1074 51.2441L37.2168 49.0361L39.7588 47.9971C39.5856 47.3044 39.499 46.6178 39.499 45.9375C39.499 45.2572 39.5856 44.5706 39.7588 43.8779L37.2168 42.8389L38.1074 40.6309L40.668 41.6885C41.3854 40.4886 42.3503 39.5238 43.5625 38.7939L42.5049 36.2334L44.7129 35.3428L45.752 37.8848C46.4447 37.7116 47.1312 37.625 47.8115 37.625C48.4919 37.625 49.1784 37.7116 49.8711 37.8848L50.9102 35.3428L53.1182 36.2334L52.0605 38.7939C53.2604 39.5238 54.2253 40.4886 54.9551 41.6885L57.5156 40.6309L58.4062 42.8389L55.8643 43.8779C56.0374 44.5706 56.124 45.2572 56.124 45.9375ZM47.8115 51.875C48.6279 51.875 49.3949 51.7204 50.1123 51.4111C50.8298 51.1019 51.4544 50.6813 51.9863 50.1494C52.5182 49.6175 52.945 48.9867 53.2666 48.2568C53.5882 47.527 53.749 46.7539 53.749 45.9375C53.749 45.1211 53.5944 44.3542 53.2852 43.6367C52.9759 42.9193 52.5492 42.2946 52.0049 41.7627C51.4606 41.2308 50.8298 40.804 50.1123 40.4824C49.3949 40.1608 48.6279 40 47.8115 40C46.9951 40 46.2282 40.1546 45.5107 40.4639C44.7933 40.7731 44.1624 41.1999 43.6182 41.7441C43.0739 42.2884 42.6471 42.9193 42.3379 43.6367C42.0286 44.3542 41.874 45.1211 41.874 45.9375C41.874 46.7539 42.0286 47.5208 42.3379 48.2383C42.6471 48.9557 43.0677 49.5866 43.5996 50.1309C44.1315 50.6751 44.7624 51.1019 45.4922 51.4111C46.222 51.7204 46.9951 51.875 47.8115 51.875Z" fill="white"/>
</g>
<defs>
<clipPath id="clip0_5_255">
<rect width="38" height="38" fill="white" transform="translate(20.5 21)"/>
</clipPath>
</defs>
</svg>
