<svg width="302" height="304" viewBox="0 0 302 304" fill="none" xmlns="http://www.w3.org/2000/svg">
<rect width="302" height="304" fill="white"/>
<rect x="111" y="8" width="80" height="80" rx="40" fill="#00685E"/>
<g clip-path="url(#clip0_5_260)">
<path d="M147.029 44.6602C146.745 45.1178 146.417 45.5322 146.046 45.9033C145.675 46.2744 145.254 46.6084 144.784 46.9053L145.73 49.2061L143.541 50.0967L142.595 47.8145C142.1 47.9382 141.568 48 140.999 48C140.43 48 139.898 47.9382 139.403 47.8145L138.457 50.0967L136.268 49.2061L137.214 46.9053C136.756 46.6208 136.342 46.293 135.971 45.9219C135.6 45.5508 135.266 45.1302 134.969 44.6602L132.668 45.6064L131.777 43.417L134.06 42.4707C133.936 41.9759 133.874 41.444 133.874 40.875C133.874 40.306 133.936 39.7741 134.06 39.2793L131.777 38.333L132.668 36.1436L134.969 37.0898C135.538 36.1621 136.286 35.4137 137.214 34.8447L136.268 32.5439L138.457 31.6533L139.403 33.9355C139.898 33.8118 140.43 33.75 140.999 33.75C141.568 33.75 142.1 33.8118 142.595 33.9355L143.541 31.6533L145.73 32.5439L144.784 34.8447C145.712 35.4137 146.46 36.1621 147.029 37.0898L149.33 36.1436L150.221 38.333L147.938 39.2793C148.062 39.7741 148.124 40.306 148.124 40.875C148.124 41.444 148.062 41.9759 147.938 42.4707L150.221 43.417L149.33 45.6064L147.029 44.6602ZM140.999 45.625C141.655 45.625 142.267 45.5013 142.836 45.2539C143.405 45.0065 143.912 44.6663 144.357 44.2334C144.803 43.8005 145.143 43.2995 145.378 42.7305C145.613 42.1615 145.737 41.543 145.749 40.875C145.749 40.2194 145.625 39.6071 145.378 39.0381C145.131 38.4691 144.79 37.9619 144.357 37.5166C143.924 37.0713 143.424 36.7311 142.854 36.4961C142.285 36.2611 141.667 36.1374 140.999 36.125C140.343 36.125 139.731 36.2487 139.162 36.4961C138.593 36.7435 138.086 37.0837 137.641 37.5166C137.195 37.9495 136.855 38.4505 136.62 39.0195C136.385 39.5885 136.261 40.207 136.249 40.875C136.249 41.5306 136.373 42.1429 136.62 42.7119C136.868 43.2809 137.208 43.7881 137.641 44.2334C138.074 44.6787 138.575 45.0189 139.144 45.2539C139.713 45.4889 140.331 45.6126 140.999 45.625ZM167.124 53.9375C167.124 54.6178 167.037 55.3044 166.864 55.9971L169.406 57.0361L168.516 59.2441L165.955 58.1865C165.225 59.3988 164.26 60.3636 163.061 61.0811L164.118 63.623L161.91 64.5322L160.871 61.9902C160.178 62.1634 159.492 62.25 158.812 62.25C158.131 62.25 157.445 62.1634 156.752 61.9902L155.713 64.5322L153.505 63.623L154.562 61.0811C153.35 60.3636 152.385 59.3988 151.668 58.1865L149.107 59.2441L148.217 57.0361L150.759 55.9971C150.586 55.3044 150.499 54.6178 150.499 53.9375C150.499 53.2572 150.586 52.5706 150.759 51.8779L148.217 50.8389L149.107 48.6309L151.668 49.6885C152.385 48.4886 153.35 47.5238 154.562 46.7939L153.505 44.2334L155.713 43.3428L156.752 45.8848C157.445 45.7116 158.131 45.625 158.812 45.625C159.492 45.625 160.178 45.7116 160.871 45.8848L161.91 43.3428L164.118 44.2334L163.061 46.7939C164.26 47.5238 165.225 48.4886 165.955 49.6885L168.516 48.6309L169.406 50.8389L166.864 51.8779C167.037 52.5706 167.124 53.2572 167.124 53.9375ZM158.812 59.875C159.628 59.875 160.395 59.7204 161.112 59.4111C161.83 59.1019 162.454 58.6813 162.986 58.1494C163.518 57.6175 163.945 56.9867 164.267 56.2568C164.588 55.527 164.749 54.7539 164.749 53.9375C164.749 53.1211 164.594 52.3542 164.285 51.6367C163.976 50.9193 163.549 50.2946 163.005 49.7627C162.461 49.2308 161.83 48.804 161.112 48.4824C160.395 48.1608 159.628 48 158.812 48C157.995 48 157.228 48.1546 156.511 48.4639C155.793 48.7731 155.162 49.1999 154.618 49.7441C154.074 50.2884 153.647 50.9193 153.338 51.6367C153.029 52.3542 152.874 53.1211 152.874 53.9375C152.874 54.7539 153.029 55.5208 153.338 56.2383C153.647 56.9557 154.068 57.5866 154.6 58.1309C155.132 58.6751 155.762 59.1019 156.492 59.4111C157.222 59.7204 157.995 59.875 158.812 59.875Z" fill="white"/>
</g>
<path d="M59.556 127.736C59.556 125.517 60.036 123.544 60.996 121.816C61.956 120.067 63.2893 118.712 64.996 117.752C66.724 116.771 68.676 116.28 70.852 116.28C73.5187 116.28 75.8013 116.984 77.7 118.392C79.5987 119.8 80.868 121.72 81.508 124.152H75.492C75.044 123.213 74.404 122.499 73.572 122.008C72.7613 121.517 71.8333 121.272 70.788 121.272C69.1027 121.272 67.7373 121.859 66.692 123.032C65.6467 124.205 65.124 125.773 65.124 127.736C65.124 129.699 65.6467 131.267 66.692 132.44C67.7373 133.613 69.1027 134.2 70.788 134.2C71.8333 134.2 72.7613 133.955 73.572 133.464C74.404 132.973 75.044 132.259 75.492 131.32H81.508C80.868 133.752 79.5987 135.672 77.7 137.08C75.8013 138.467 73.5187 139.16 70.852 139.16C68.676 139.16 66.724 138.68 64.996 137.72C63.2893 136.739 61.956 135.384 60.996 133.656C60.036 131.928 59.556 129.955 59.556 127.736ZM92.987 139.256C91.2377 139.256 89.659 138.883 88.251 138.136C86.8643 137.389 85.7657 136.323 84.955 134.936C84.1657 133.549 83.771 131.928 83.771 130.072C83.771 128.237 84.1763 126.627 84.987 125.24C85.7977 123.832 86.907 122.755 88.315 122.008C89.723 121.261 91.3017 120.888 93.051 120.888C94.8003 120.888 96.379 121.261 97.787 122.008C99.195 122.755 100.304 123.832 101.115 125.24C101.926 126.627 102.331 128.237 102.331 130.072C102.331 131.907 101.915 133.528 101.083 134.936C100.272 136.323 99.1523 137.389 97.723 138.136C96.315 138.883 94.7363 139.256 92.987 139.256ZM92.987 134.52C94.0323 134.52 94.9177 134.136 95.643 133.368C96.3897 132.6 96.763 131.501 96.763 130.072C96.763 128.643 96.4003 127.544 95.675 126.776C94.971 126.008 94.0963 125.624 93.051 125.624C91.9843 125.624 91.099 126.008 90.395 126.776C89.691 127.523 89.339 128.621 89.339 130.072C89.339 131.501 89.6803 132.6 90.363 133.368C91.067 134.136 91.9417 134.52 92.987 134.52ZM128.018 120.952C130.237 120.952 131.997 121.624 133.298 122.968C134.621 124.312 135.282 126.179 135.282 128.568V139H129.842V129.304C129.842 128.152 129.533 127.267 128.914 126.648C128.317 126.008 127.485 125.688 126.418 125.688C125.351 125.688 124.509 126.008 123.89 126.648C123.293 127.267 122.994 128.152 122.994 129.304V139H117.554V129.304C117.554 128.152 117.245 127.267 116.626 126.648C116.029 126.008 115.197 125.688 114.13 125.688C113.063 125.688 112.221 126.008 111.602 126.648C111.005 127.267 110.706 128.152 110.706 129.304V139H105.234V121.144H110.706V123.384C111.261 122.637 111.986 122.051 112.882 121.624C113.778 121.176 114.791 120.952 115.922 120.952C117.266 120.952 118.461 121.24 119.506 121.816C120.573 122.392 121.405 123.213 122.002 124.28C122.621 123.299 123.463 122.499 124.53 121.88C125.597 121.261 126.759 120.952 128.018 120.952ZM161.893 120.952C164.112 120.952 165.872 121.624 167.173 122.968C168.496 124.312 169.157 126.179 169.157 128.568V139H163.717V129.304C163.717 128.152 163.408 127.267 162.789 126.648C162.192 126.008 161.36 125.688 160.293 125.688C159.226 125.688 158.384 126.008 157.765 126.648C157.168 127.267 156.869 128.152 156.869 129.304V139H151.429V129.304C151.429 128.152 151.12 127.267 150.501 126.648C149.904 126.008 149.072 125.688 148.005 125.688C146.938 125.688 146.096 126.008 145.477 126.648C144.88 127.267 144.581 128.152 144.581 129.304V139H139.109V121.144H144.581V123.384C145.136 122.637 145.861 122.051 146.757 121.624C147.653 121.176 148.666 120.952 149.797 120.952C151.141 120.952 152.336 121.24 153.381 121.816C154.448 122.392 155.28 123.213 155.877 124.28C156.496 123.299 157.338 122.499 158.405 121.88C159.472 121.261 160.634 120.952 161.893 120.952ZM189.816 129.784C189.816 130.296 189.784 130.829 189.72 131.384H177.336C177.421 132.493 177.773 133.347 178.392 133.944C179.032 134.52 179.811 134.808 180.728 134.808C182.093 134.808 183.043 134.232 183.576 133.08H189.4C189.101 134.253 188.557 135.309 187.768 136.248C187 137.187 186.029 137.923 184.856 138.456C183.683 138.989 182.371 139.256 180.92 139.256C179.171 139.256 177.613 138.883 176.248 138.136C174.883 137.389 173.816 136.323 173.048 134.936C172.28 133.549 171.896 131.928 171.896 130.072C171.896 128.216 172.269 126.595 173.016 125.208C173.784 123.821 174.851 122.755 176.216 122.008C177.581 121.261 179.149 120.888 180.92 120.888C182.648 120.888 184.184 121.251 185.528 121.976C186.872 122.701 187.917 123.736 188.664 125.08C189.432 126.424 189.816 127.992 189.816 129.784ZM184.216 128.344C184.216 127.405 183.896 126.659 183.256 126.104C182.616 125.549 181.816 125.272 180.856 125.272C179.939 125.272 179.16 125.539 178.52 126.072C177.901 126.605 177.517 127.363 177.368 128.344H184.216ZM198.175 124.12C198.815 123.139 199.615 122.371 200.575 121.816C201.535 121.24 202.601 120.952 203.775 120.952V126.744H202.271C200.905 126.744 199.881 127.043 199.199 127.64C198.516 128.216 198.175 129.24 198.175 130.712V139H192.703V121.144H198.175V124.12ZM205.302 130.072C205.302 128.216 205.676 126.595 206.422 125.208C207.19 123.821 208.246 122.755 209.59 122.008C210.956 121.261 212.513 120.888 214.262 120.888C216.502 120.888 218.369 121.475 219.862 122.648C221.377 123.821 222.369 125.475 222.838 127.608H217.014C216.524 126.243 215.574 125.56 214.166 125.56C213.164 125.56 212.364 125.955 211.766 126.744C211.169 127.512 210.87 128.621 210.87 130.072C210.87 131.523 211.169 132.643 211.766 133.432C212.364 134.2 213.164 134.584 214.166 134.584C215.574 134.584 216.524 133.901 217.014 132.536H222.838C222.369 134.627 221.377 136.269 219.862 137.464C218.348 138.659 216.481 139.256 214.262 139.256C212.513 139.256 210.956 138.883 209.59 138.136C208.246 137.389 207.19 136.323 206.422 134.936C205.676 133.549 205.302 131.928 205.302 130.072ZM242.597 129.784C242.597 130.296 242.565 130.829 242.501 131.384H230.117C230.203 132.493 230.555 133.347 231.173 133.944C231.813 134.52 232.592 134.808 233.509 134.808C234.875 134.808 235.824 134.232 236.357 133.08H242.181C241.883 134.253 241.339 135.309 240.549 136.248C239.781 137.187 238.811 137.923 237.637 138.456C236.464 138.989 235.152 139.256 233.701 139.256C231.952 139.256 230.395 138.883 229.029 138.136C227.664 137.389 226.597 136.323 225.829 134.936C225.061 133.549 224.677 131.928 224.677 130.072C224.677 128.216 225.051 126.595 225.797 125.208C226.565 123.821 227.632 122.755 228.997 122.008C230.363 121.261 231.931 120.888 233.701 120.888C235.429 120.888 236.965 121.251 238.309 121.976C239.653 122.701 240.699 123.736 241.445 125.08C242.213 126.424 242.597 127.992 242.597 129.784ZM236.997 128.344C236.997 127.405 236.677 126.659 236.037 126.104C235.397 125.549 234.597 125.272 233.637 125.272C232.72 125.272 231.941 125.539 231.301 126.072C230.683 126.605 230.299 127.363 230.149 128.344H236.997ZM100.204 159.736C100.204 157.517 100.684 155.544 101.644 153.816C102.604 152.067 103.938 150.712 105.644 149.752C107.372 148.771 109.324 148.28 111.5 148.28C114.167 148.28 116.45 148.984 118.348 150.392C120.247 151.8 121.516 153.72 122.156 156.152H116.14C115.692 155.213 115.052 154.499 114.22 154.008C113.41 153.517 112.482 153.272 111.436 153.272C109.751 153.272 108.386 153.859 107.34 155.032C106.295 156.205 105.772 157.773 105.772 159.736C105.772 161.699 106.295 163.267 107.34 164.44C108.386 165.613 109.751 166.2 111.436 166.2C112.482 166.2 113.41 165.955 114.22 165.464C115.052 164.973 115.692 164.259 116.14 163.32H122.156C121.516 165.752 120.247 167.672 118.348 169.08C116.45 170.467 114.167 171.16 111.5 171.16C109.324 171.16 107.372 170.68 105.644 169.72C103.938 168.739 102.604 167.384 101.644 165.656C100.684 163.928 100.204 161.955 100.204 159.736ZM130.979 147.32V171H125.507V147.32H130.979ZM143.073 171.256C141.324 171.256 139.745 170.883 138.337 170.136C136.95 169.389 135.852 168.323 135.041 166.936C134.252 165.549 133.857 163.928 133.857 162.072C133.857 160.237 134.262 158.627 135.073 157.24C135.884 155.832 136.993 154.755 138.401 154.008C139.809 153.261 141.388 152.888 143.137 152.888C144.886 152.888 146.465 153.261 147.873 154.008C149.281 154.755 150.39 155.832 151.201 157.24C152.012 158.627 152.417 160.237 152.417 162.072C152.417 163.907 152.001 165.528 151.169 166.936C150.358 168.323 149.238 169.389 147.809 170.136C146.401 170.883 144.822 171.256 143.073 171.256ZM143.073 166.52C144.118 166.52 145.004 166.136 145.729 165.368C146.476 164.6 146.849 163.501 146.849 162.072C146.849 160.643 146.486 159.544 145.761 158.776C145.057 158.008 144.182 157.624 143.137 157.624C142.07 157.624 141.185 158.008 140.481 158.776C139.777 159.523 139.425 160.621 139.425 162.072C139.425 163.501 139.766 164.6 140.449 165.368C141.153 166.136 142.028 166.52 143.073 166.52ZM172.952 153.144V171H167.48V168.568C166.925 169.357 166.168 169.997 165.208 170.488C164.269 170.957 163.224 171.192 162.072 171.192C160.707 171.192 159.501 170.893 158.456 170.296C157.411 169.677 156.6 168.792 156.024 167.64C155.448 166.488 155.16 165.133 155.16 163.576V153.144H160.6V162.84C160.6 164.035 160.909 164.963 161.528 165.624C162.147 166.285 162.979 166.616 164.024 166.616C165.091 166.616 165.933 166.285 166.552 165.624C167.171 164.963 167.48 164.035 167.48 162.84V153.144H172.952ZM175.794 162.04C175.794 160.205 176.136 158.595 176.818 157.208C177.522 155.821 178.472 154.755 179.666 154.008C180.861 153.261 182.194 152.888 183.666 152.888C184.84 152.888 185.906 153.133 186.866 153.624C187.848 154.115 188.616 154.776 189.17 155.608V147.32H194.642V171H189.17V168.44C188.658 169.293 187.922 169.976 186.962 170.488C186.024 171 184.925 171.256 183.666 171.256C182.194 171.256 180.861 170.883 179.666 170.136C178.472 169.368 177.522 168.291 176.818 166.904C176.136 165.496 175.794 163.875 175.794 162.04ZM189.17 162.072C189.17 160.707 188.786 159.629 188.018 158.84C187.272 158.051 186.354 157.656 185.266 157.656C184.178 157.656 183.25 158.051 182.482 158.84C181.736 159.608 181.362 160.675 181.362 162.04C181.362 163.405 181.736 164.493 182.482 165.304C183.25 166.093 184.178 166.488 185.266 166.488C186.354 166.488 187.272 166.093 188.018 165.304C188.786 164.515 189.17 163.437 189.17 162.072Z" fill="black"/>
<path d="M70.9979 207.32V209.552H66.5579V224H63.8219V209.552H59.3579V207.32H70.9979ZM76.5048 212.696C76.9048 212.024 77.4328 211.504 78.0888 211.136C78.7608 210.752 79.5528 210.56 80.4648 210.56V213.392H79.7688C78.6968 213.392 77.8808 213.664 77.3208 214.208C76.7768 214.752 76.5048 215.696 76.5048 217.04V224H73.7688V210.776H76.5048V212.696ZM82.0677 217.328C82.0677 216 82.3397 214.824 82.8837 213.8C83.4437 212.776 84.1957 211.984 85.1397 211.424C86.0997 210.848 87.1557 210.56 88.3077 210.56C89.3477 210.56 90.2517 210.768 91.0197 211.184C91.8037 211.584 92.4277 212.088 92.8917 212.696V210.776H95.6517V224H92.8917V222.032C92.4277 222.656 91.7957 223.176 90.9957 223.592C90.1957 224.008 89.2837 224.216 88.2597 224.216C87.1237 224.216 86.0837 223.928 85.1397 223.352C84.1957 222.76 83.4437 221.944 82.8837 220.904C82.3397 219.848 82.0677 218.656 82.0677 217.328ZM92.8917 217.376C92.8917 216.464 92.6997 215.672 92.3157 215C91.9477 214.328 91.4597 213.816 90.8517 213.464C90.2437 213.112 89.5877 212.936 88.8837 212.936C88.1797 212.936 87.5237 213.112 86.9157 213.464C86.3077 213.8 85.8117 214.304 85.4277 214.976C85.0597 215.632 84.8757 216.416 84.8757 217.328C84.8757 218.24 85.0597 219.04 85.4277 219.728C85.8117 220.416 86.3077 220.944 86.9157 221.312C87.5397 221.664 88.1957 221.84 88.8837 221.84C89.5877 221.84 90.2437 221.664 90.8517 221.312C91.4597 220.96 91.9477 220.448 92.3157 219.776C92.6997 219.088 92.8917 218.288 92.8917 217.376ZM105.917 210.56C106.957 210.56 107.885 210.776 108.701 211.208C109.533 211.64 110.181 212.28 110.645 213.128C111.109 213.976 111.341 215 111.341 216.2V224H108.629V216.608C108.629 215.424 108.333 214.52 107.741 213.896C107.149 213.256 106.341 212.936 105.317 212.936C104.293 212.936 103.477 213.256 102.869 213.896C102.277 214.52 101.981 215.424 101.981 216.608V224H99.2453V210.776H101.981V212.288C102.429 211.744 102.997 211.32 103.685 211.016C104.389 210.712 105.133 210.56 105.917 210.56ZM119.631 224.216C118.591 224.216 117.655 224.032 116.823 223.664C116.007 223.28 115.359 222.768 114.879 222.128C114.399 221.472 114.143 220.744 114.111 219.944H116.943C116.991 220.504 117.255 220.976 117.735 221.36C118.231 221.728 118.847 221.912 119.583 221.912C120.351 221.912 120.943 221.768 121.359 221.48C121.791 221.176 122.007 220.792 122.007 220.328C122.007 219.832 121.767 219.464 121.287 219.224C120.823 218.984 120.079 218.72 119.055 218.432C118.063 218.16 117.255 217.896 116.631 217.64C116.007 217.384 115.463 216.992 114.999 216.464C114.551 215.936 114.327 215.24 114.327 214.376C114.327 213.672 114.535 213.032 114.951 212.456C115.367 211.864 115.959 211.4 116.727 211.064C117.511 210.728 118.407 210.56 119.415 210.56C120.919 210.56 122.127 210.944 123.039 211.712C123.967 212.464 124.463 213.496 124.527 214.808H121.791C121.743 214.216 121.503 213.744 121.071 213.392C120.639 213.04 120.055 212.864 119.319 212.864C118.599 212.864 118.047 213 117.663 213.272C117.279 213.544 117.087 213.904 117.087 214.352C117.087 214.704 117.215 215 117.471 215.24C117.727 215.48 118.039 215.672 118.407 215.816C118.775 215.944 119.319 216.112 120.039 216.32C120.999 216.576 121.783 216.84 122.391 217.112C123.015 217.368 123.551 217.752 123.999 218.264C124.447 218.776 124.679 219.456 124.695 220.304C124.695 221.056 124.487 221.728 124.071 222.32C123.655 222.912 123.063 223.376 122.295 223.712C121.543 224.048 120.655 224.216 119.631 224.216ZM133.196 213.008H130.748V224H127.988V213.008H126.428V210.776H127.988V209.84C127.988 208.32 128.388 207.216 129.188 206.528C130.004 205.824 131.276 205.472 133.004 205.472V207.752C132.172 207.752 131.588 207.912 131.252 208.232C130.916 208.536 130.748 209.072 130.748 209.84V210.776H133.196V213.008ZM141.356 224.216C140.108 224.216 138.98 223.936 137.972 223.376C136.964 222.8 136.172 222 135.596 220.976C135.02 219.936 134.732 218.736 134.732 217.376C134.732 216.032 135.028 214.84 135.62 213.8C136.212 212.76 137.02 211.96 138.044 211.4C139.068 210.84 140.212 210.56 141.476 210.56C142.74 210.56 143.884 210.84 144.908 211.4C145.932 211.96 146.74 212.76 147.332 213.8C147.924 214.84 148.22 216.032 148.22 217.376C148.22 218.72 147.916 219.912 147.308 220.952C146.7 221.992 145.868 222.8 144.812 223.376C143.772 223.936 142.62 224.216 141.356 224.216ZM141.356 221.84C142.06 221.84 142.716 221.672 143.324 221.336C143.948 221 144.452 220.496 144.836 219.824C145.22 219.152 145.412 218.336 145.412 217.376C145.412 216.416 145.228 215.608 144.86 214.952C144.492 214.28 144.004 213.776 143.396 213.44C142.788 213.104 142.132 212.936 141.428 212.936C140.724 212.936 140.068 213.104 139.46 213.44C138.868 213.776 138.396 214.28 138.044 214.952C137.692 215.608 137.516 216.416 137.516 217.376C137.516 218.8 137.876 219.904 138.596 220.688C139.332 221.456 140.252 221.84 141.356 221.84ZM153.661 212.696C154.061 212.024 154.589 211.504 155.245 211.136C155.917 210.752 156.709 210.56 157.621 210.56V213.392H156.925C155.853 213.392 155.037 213.664 154.477 214.208C153.933 214.752 153.661 215.696 153.661 217.04V224H150.925V210.776H153.661V212.696ZM176.144 210.56C177.184 210.56 178.112 210.776 178.928 211.208C179.76 211.64 180.408 212.28 180.872 213.128C181.352 213.976 181.592 215 181.592 216.2V224H178.88V216.608C178.88 215.424 178.584 214.52 177.992 213.896C177.4 213.256 176.592 212.936 175.568 212.936C174.544 212.936 173.728 213.256 173.12 213.896C172.528 214.52 172.232 215.424 172.232 216.608V224H169.52V216.608C169.52 215.424 169.224 214.52 168.632 213.896C168.04 213.256 167.232 212.936 166.208 212.936C165.184 212.936 164.368 213.256 163.76 213.896C163.168 214.52 162.872 215.424 162.872 216.608V224H160.136V210.776H162.872V212.288C163.32 211.744 163.888 211.32 164.576 211.016C165.264 210.712 166 210.56 166.784 210.56C167.84 210.56 168.784 210.784 169.616 211.232C170.448 211.68 171.088 212.328 171.536 213.176C171.936 212.376 172.56 211.744 173.408 211.28C174.256 210.8 175.168 210.56 176.144 210.56ZM203.212 210.776L195.1 230.216H192.268L194.956 223.784L189.748 210.776H192.796L196.516 220.856L200.38 210.776H203.212ZM211.013 224.216C209.765 224.216 208.637 223.936 207.629 223.376C206.621 222.8 205.829 222 205.253 220.976C204.677 219.936 204.389 218.736 204.389 217.376C204.389 216.032 204.685 214.84 205.277 213.8C205.869 212.76 206.677 211.96 207.701 211.4C208.725 210.84 209.869 210.56 211.133 210.56C212.397 210.56 213.541 210.84 214.565 211.4C215.589 211.96 216.397 212.76 216.989 213.8C217.581 214.84 217.877 216.032 217.877 217.376C217.877 218.72 217.573 219.912 216.965 220.952C216.357 221.992 215.525 222.8 214.469 223.376C213.429 223.936 212.277 224.216 211.013 224.216ZM211.013 221.84C211.717 221.84 212.373 221.672 212.981 221.336C213.605 221 214.109 220.496 214.493 219.824C214.877 219.152 215.069 218.336 215.069 217.376C215.069 216.416 214.885 215.608 214.517 214.952C214.149 214.28 213.661 213.776 213.053 213.44C212.445 213.104 211.789 212.936 211.085 212.936C210.381 212.936 209.725 213.104 209.117 213.44C208.525 213.776 208.053 214.28 207.701 214.952C207.349 215.608 207.173 216.416 207.173 217.376C207.173 218.8 207.533 219.904 208.253 220.688C208.989 221.456 209.909 221.84 211.013 221.84ZM232.557 210.776V224H229.821V222.44C229.389 222.984 228.821 223.416 228.117 223.736C227.429 224.04 226.693 224.192 225.909 224.192C224.869 224.192 223.933 223.976 223.101 223.544C222.285 223.112 221.637 222.472 221.157 221.624C220.693 220.776 220.461 219.752 220.461 218.552V210.776H223.173V218.144C223.173 219.328 223.469 220.24 224.061 220.88C224.653 221.504 225.461 221.816 226.485 221.816C227.509 221.816 228.317 221.504 228.909 220.88C229.517 220.24 229.821 219.328 229.821 218.144V210.776H232.557ZM238.903 212.696C239.303 212.024 239.831 211.504 240.487 211.136C241.159 210.752 241.951 210.56 242.863 210.56V213.392H242.167C241.095 213.392 240.279 213.664 239.719 214.208C239.175 214.752 238.903 215.696 238.903 217.04V224H236.167V210.776H238.903V212.696ZM85.4896 249.376C85.4896 248.016 85.7616 246.824 86.3056 245.8C86.8656 244.76 87.6336 243.96 88.6096 243.4C89.5856 242.84 90.7056 242.56 91.9696 242.56C93.5696 242.56 94.8896 242.944 95.9296 243.712C96.9856 244.464 97.6976 245.544 98.0656 246.952H95.1136C94.8736 246.296 94.4896 245.784 93.9616 245.416C93.4336 245.048 92.7696 244.864 91.9696 244.864C90.8496 244.864 89.9536 245.264 89.2816 246.064C88.6256 246.848 88.2976 247.952 88.2976 249.376C88.2976 250.8 88.6256 251.912 89.2816 252.712C89.9536 253.512 90.8496 253.912 91.9696 253.912C93.5536 253.912 94.6016 253.216 95.1136 251.824H98.0656C97.6816 253.168 96.9616 254.24 95.9056 255.04C94.8496 255.824 93.5376 256.216 91.9696 256.216C90.7056 256.216 89.5856 255.936 88.6096 255.376C87.6336 254.8 86.8656 254 86.3056 252.976C85.7616 251.936 85.4896 250.736 85.4896 249.376ZM106.528 256.216C105.28 256.216 104.152 255.936 103.144 255.376C102.136 254.8 101.344 254 100.768 252.976C100.192 251.936 99.9042 250.736 99.9042 249.376C99.9042 248.032 100.2 246.84 100.792 245.8C101.384 244.76 102.192 243.96 103.216 243.4C104.24 242.84 105.384 242.56 106.648 242.56C107.912 242.56 109.056 242.84 110.08 243.4C111.104 243.96 111.912 244.76 112.504 245.8C113.096 246.84 113.392 248.032 113.392 249.376C113.392 250.72 113.088 251.912 112.48 252.952C111.872 253.992 111.04 254.8 109.984 255.376C108.944 255.936 107.792 256.216 106.528 256.216ZM106.528 253.84C107.232 253.84 107.888 253.672 108.496 253.336C109.12 253 109.624 252.496 110.008 251.824C110.392 251.152 110.584 250.336 110.584 249.376C110.584 248.416 110.4 247.608 110.032 246.952C109.664 246.28 109.176 245.776 108.568 245.44C107.96 245.104 107.304 244.936 106.6 244.936C105.896 244.936 105.24 245.104 104.632 245.44C104.04 245.776 103.568 246.28 103.216 246.952C102.864 247.608 102.688 248.416 102.688 249.376C102.688 250.8 103.048 251.904 103.768 252.688C104.504 253.456 105.424 253.84 106.528 253.84ZM132.105 242.56C133.145 242.56 134.073 242.776 134.889 243.208C135.721 243.64 136.369 244.28 136.833 245.128C137.313 245.976 137.553 247 137.553 248.2V256H134.841V248.608C134.841 247.424 134.545 246.52 133.953 245.896C133.361 245.256 132.553 244.936 131.529 244.936C130.505 244.936 129.689 245.256 129.081 245.896C128.489 246.52 128.193 247.424 128.193 248.608V256H125.481V248.608C125.481 247.424 125.185 246.52 124.593 245.896C124.001 245.256 123.193 244.936 122.169 244.936C121.145 244.936 120.329 245.256 119.721 245.896C119.129 246.52 118.833 247.424 118.833 248.608V256H116.097V242.776H118.833V244.288C119.281 243.744 119.849 243.32 120.537 243.016C121.225 242.712 121.961 242.56 122.745 242.56C123.801 242.56 124.745 242.784 125.577 243.232C126.409 243.68 127.049 244.328 127.497 245.176C127.897 244.376 128.521 243.744 129.369 243.28C130.217 242.8 131.129 242.56 132.105 242.56ZM157.042 242.56C158.082 242.56 159.01 242.776 159.826 243.208C160.658 243.64 161.306 244.28 161.77 245.128C162.25 245.976 162.49 247 162.49 248.2V256H159.778V248.608C159.778 247.424 159.482 246.52 158.89 245.896C158.298 245.256 157.49 244.936 156.466 244.936C155.442 244.936 154.626 245.256 154.018 245.896C153.426 246.52 153.13 247.424 153.13 248.608V256H150.418V248.608C150.418 247.424 150.122 246.52 149.53 245.896C148.938 245.256 148.13 244.936 147.106 244.936C146.082 244.936 145.266 245.256 144.658 245.896C144.066 246.52 143.77 247.424 143.77 248.608V256H141.034V242.776H143.77V244.288C144.218 243.744 144.786 243.32 145.474 243.016C146.162 242.712 146.898 242.56 147.682 242.56C148.738 242.56 149.682 242.784 150.514 243.232C151.346 243.68 151.986 244.328 152.434 245.176C152.834 244.376 153.458 243.744 154.306 243.28C155.154 242.8 156.066 242.56 157.042 242.56ZM178.092 249.064C178.092 249.56 178.06 250.008 177.996 250.408H167.892C167.972 251.464 168.364 252.312 169.068 252.952C169.772 253.592 170.636 253.912 171.66 253.912C173.132 253.912 174.172 253.296 174.78 252.064H177.732C177.332 253.28 176.604 254.28 175.548 255.064C174.508 255.832 173.212 256.216 171.66 256.216C170.396 256.216 169.26 255.936 168.252 255.376C167.26 254.8 166.476 254 165.9 252.976C165.34 251.936 165.06 250.736 165.06 249.376C165.06 248.016 165.332 246.824 165.876 245.8C166.436 244.76 167.212 243.96 168.204 243.4C169.212 242.84 170.364 242.56 171.66 242.56C172.908 242.56 174.02 242.832 174.996 243.376C175.972 243.92 176.732 244.688 177.276 245.68C177.82 246.656 178.092 247.784 178.092 249.064ZM175.236 248.2C175.22 247.192 174.86 246.384 174.156 245.776C173.452 245.168 172.58 244.864 171.54 244.864C170.596 244.864 169.788 245.168 169.116 245.776C168.444 246.368 168.044 247.176 167.916 248.2H175.236ZM183.52 244.696C183.92 244.024 184.448 243.504 185.104 243.136C185.776 242.752 186.568 242.56 187.48 242.56V245.392H186.784C185.712 245.392 184.896 245.664 184.336 246.208C183.792 246.752 183.52 247.696 183.52 249.04V256H180.784V242.776H183.52V244.696ZM189.083 249.376C189.083 248.016 189.355 246.824 189.899 245.8C190.459 244.76 191.227 243.96 192.203 243.4C193.179 242.84 194.299 242.56 195.563 242.56C197.163 242.56 198.483 242.944 199.523 243.712C200.579 244.464 201.291 245.544 201.659 246.952H198.707C198.467 246.296 198.083 245.784 197.555 245.416C197.027 245.048 196.363 244.864 195.563 244.864C194.443 244.864 193.547 245.264 192.875 246.064C192.219 246.848 191.891 247.952 191.891 249.376C191.891 250.8 192.219 251.912 192.875 252.712C193.547 253.512 194.443 253.912 195.563 253.912C197.147 253.912 198.195 253.216 198.707 251.824H201.659C201.275 253.168 200.555 254.24 199.499 255.04C198.443 255.824 197.131 256.216 195.563 256.216C194.299 256.216 193.179 255.936 192.203 255.376C191.227 254.8 190.459 254 189.899 252.976C189.355 251.936 189.083 250.736 189.083 249.376ZM216.506 249.064C216.506 249.56 216.474 250.008 216.41 250.408H206.306C206.386 251.464 206.778 252.312 207.482 252.952C208.186 253.592 209.05 253.912 210.074 253.912C211.546 253.912 212.586 253.296 213.194 252.064H216.146C215.746 253.28 215.018 254.28 213.962 255.064C212.922 255.832 211.626 256.216 210.074 256.216C208.81 256.216 207.674 255.936 206.666 255.376C205.674 254.8 204.89 254 204.314 252.976C203.754 251.936 203.474 250.736 203.474 249.376C203.474 248.016 203.746 246.824 204.29 245.8C204.85 244.76 205.626 243.96 206.618 243.4C207.626 242.84 208.778 242.56 210.074 242.56C211.322 242.56 212.434 242.832 213.41 243.376C214.386 243.92 215.146 244.688 215.69 245.68C216.234 246.656 216.506 247.784 216.506 249.064ZM213.65 248.2C213.634 247.192 213.274 246.384 212.57 245.776C211.866 245.168 210.994 244.864 209.954 244.864C209.01 244.864 208.202 245.168 207.53 245.776C206.858 246.368 206.458 247.176 206.33 248.2H213.65ZM95.5216 281.064C95.5216 281.56 95.4896 282.008 95.4256 282.408H85.3216C85.4016 283.464 85.7936 284.312 86.4976 284.952C87.2016 285.592 88.0656 285.912 89.0896 285.912C90.5616 285.912 91.6016 285.296 92.2096 284.064H95.1616C94.7616 285.28 94.0336 286.28 92.9776 287.064C91.9376 287.832 90.6416 288.216 89.0896 288.216C87.8256 288.216 86.6896 287.936 85.6816 287.376C84.6896 286.8 83.9056 286 83.3296 284.976C82.7696 283.936 82.4896 282.736 82.4896 281.376C82.4896 280.016 82.7616 278.824 83.3056 277.8C83.8656 276.76 84.6416 275.96 85.6336 275.4C86.6416 274.84 87.7936 274.56 89.0896 274.56C90.3376 274.56 91.4496 274.832 92.4256 275.376C93.4016 275.92 94.1616 276.688 94.7056 277.68C95.2496 278.656 95.5216 279.784 95.5216 281.064ZM92.6656 280.2C92.6496 279.192 92.2896 278.384 91.5856 277.776C90.8816 277.168 90.0096 276.864 88.9696 276.864C88.0256 276.864 87.2176 277.168 86.5456 277.776C85.8736 278.368 85.4736 279.176 85.3456 280.2H92.6656ZM103.878 281.304L108.15 288H105.054L102.198 283.512L99.5101 288H96.6541L100.926 281.496L96.6541 274.776H99.7501L102.606 279.264L105.294 274.776H108.15L103.878 281.304ZM112.927 276.72C113.391 276.112 114.023 275.6 114.823 275.184C115.623 274.768 116.527 274.56 117.535 274.56C118.687 274.56 119.735 274.848 120.679 275.424C121.639 275.984 122.391 276.776 122.935 277.8C123.479 278.824 123.751 280 123.751 281.328C123.751 282.656 123.479 283.848 122.935 284.904C122.391 285.944 121.639 286.76 120.679 287.352C119.735 287.928 118.687 288.216 117.535 288.216C116.527 288.216 115.631 288.016 114.847 287.616C114.063 287.2 113.423 286.688 112.927 286.08V294.288H110.191V274.776H112.927V276.72ZM120.967 281.328C120.967 280.416 120.775 279.632 120.391 278.976C120.023 278.304 119.527 277.8 118.903 277.464C118.295 277.112 117.639 276.936 116.935 276.936C116.247 276.936 115.591 277.112 114.967 277.464C114.359 277.816 113.863 278.328 113.479 279C113.111 279.672 112.927 280.464 112.927 281.376C112.927 282.288 113.111 283.088 113.479 283.776C113.863 284.448 114.359 284.96 114.967 285.312C115.591 285.664 116.247 285.84 116.935 285.84C117.639 285.84 118.295 285.664 118.903 285.312C119.527 284.944 120.023 284.416 120.391 283.728C120.775 283.04 120.967 282.24 120.967 281.328ZM138.576 281.064C138.576 281.56 138.544 282.008 138.48 282.408H128.376C128.456 283.464 128.848 284.312 129.552 284.952C130.256 285.592 131.12 285.912 132.144 285.912C133.616 285.912 134.656 285.296 135.264 284.064H138.216C137.816 285.28 137.088 286.28 136.032 287.064C134.992 287.832 133.696 288.216 132.144 288.216C130.88 288.216 129.744 287.936 128.736 287.376C127.744 286.8 126.96 286 126.384 284.976C125.824 283.936 125.544 282.736 125.544 281.376C125.544 280.016 125.816 278.824 126.36 277.8C126.92 276.76 127.696 275.96 128.688 275.4C129.696 274.84 130.848 274.56 132.144 274.56C133.392 274.56 134.504 274.832 135.48 275.376C136.456 275.92 137.216 276.688 137.76 277.68C138.304 278.656 138.576 279.784 138.576 281.064ZM135.72 280.2C135.704 279.192 135.344 278.384 134.64 277.776C133.936 277.168 133.064 276.864 132.024 276.864C131.08 276.864 130.272 277.168 129.6 277.776C128.928 278.368 128.528 279.176 128.4 280.2H135.72ZM144.005 276.696C144.405 276.024 144.933 275.504 145.589 275.136C146.261 274.752 147.053 274.56 147.965 274.56V277.392H147.269C146.197 277.392 145.381 277.664 144.821 278.208C144.277 278.752 144.005 279.696 144.005 281.04V288H141.269V274.776H144.005V276.696ZM151.872 273.024C151.376 273.024 150.96 272.856 150.624 272.52C150.288 272.184 150.12 271.768 150.12 271.272C150.12 270.776 150.288 270.36 150.624 270.024C150.96 269.688 151.376 269.52 151.872 269.52C152.352 269.52 152.76 269.688 153.096 270.024C153.432 270.36 153.6 270.776 153.6 271.272C153.6 271.768 153.432 272.184 153.096 272.52C152.76 272.856 152.352 273.024 151.872 273.024ZM153.216 274.776V288H150.48V274.776H153.216ZM168.928 281.064C168.928 281.56 168.896 282.008 168.832 282.408H158.728C158.808 283.464 159.2 284.312 159.904 284.952C160.608 285.592 161.472 285.912 162.496 285.912C163.968 285.912 165.008 285.296 165.616 284.064H168.568C168.168 285.28 167.44 286.28 166.384 287.064C165.344 287.832 164.048 288.216 162.496 288.216C161.232 288.216 160.096 287.936 159.088 287.376C158.096 286.8 157.312 286 156.736 284.976C156.176 283.936 155.896 282.736 155.896 281.376C155.896 280.016 156.168 278.824 156.712 277.8C157.272 276.76 158.048 275.96 159.04 275.4C160.048 274.84 161.2 274.56 162.496 274.56C163.744 274.56 164.856 274.832 165.832 275.376C166.808 275.92 167.568 276.688 168.112 277.68C168.656 278.656 168.928 279.784 168.928 281.064ZM166.072 280.2C166.056 279.192 165.696 278.384 164.992 277.776C164.288 277.168 163.416 276.864 162.376 276.864C161.432 276.864 160.624 277.168 159.952 277.776C159.28 278.368 158.88 279.176 158.752 280.2H166.072ZM178.292 274.56C179.332 274.56 180.26 274.776 181.076 275.208C181.908 275.64 182.556 276.28 183.02 277.128C183.484 277.976 183.716 279 183.716 280.2V288H181.004V280.608C181.004 279.424 180.708 278.52 180.116 277.896C179.524 277.256 178.716 276.936 177.692 276.936C176.668 276.936 175.852 277.256 175.244 277.896C174.652 278.52 174.356 279.424 174.356 280.608V288H171.62V274.776H174.356V276.288C174.804 275.744 175.372 275.32 176.06 275.016C176.764 274.712 177.508 274.56 178.292 274.56ZM186.294 281.376C186.294 280.016 186.566 278.824 187.11 277.8C187.67 276.76 188.438 275.96 189.414 275.4C190.39 274.84 191.51 274.56 192.774 274.56C194.374 274.56 195.694 274.944 196.734 275.712C197.79 276.464 198.502 277.544 198.87 278.952H195.918C195.678 278.296 195.294 277.784 194.766 277.416C194.238 277.048 193.574 276.864 192.774 276.864C191.654 276.864 190.758 277.264 190.086 278.064C189.43 278.848 189.102 279.952 189.102 281.376C189.102 282.8 189.43 283.912 190.086 284.712C190.758 285.512 191.654 285.912 192.774 285.912C194.358 285.912 195.406 285.216 195.918 283.824H198.87C198.486 285.168 197.766 286.24 196.71 287.04C195.654 287.824 194.342 288.216 192.774 288.216C191.51 288.216 190.39 287.936 189.414 287.376C188.438 286.8 187.67 286 187.11 284.976C186.566 283.936 186.294 282.736 186.294 281.376ZM213.717 281.064C213.717 281.56 213.685 282.008 213.621 282.408H203.517C203.597 283.464 203.989 284.312 204.693 284.952C205.397 285.592 206.261 285.912 207.285 285.912C208.757 285.912 209.797 285.296 210.405 284.064H213.357C212.957 285.28 212.229 286.28 211.173 287.064C210.133 287.832 208.837 288.216 207.285 288.216C206.021 288.216 204.885 287.936 203.877 287.376C202.885 286.8 202.101 286 201.525 284.976C200.965 283.936 200.685 282.736 200.685 281.376C200.685 280.016 200.957 278.824 201.501 277.8C202.061 276.76 202.837 275.96 203.829 275.4C204.837 274.84 205.989 274.56 207.285 274.56C208.533 274.56 209.645 274.832 210.621 275.376C211.597 275.92 212.357 276.688 212.901 277.68C213.445 278.656 213.717 279.784 213.717 281.064ZM210.861 280.2C210.845 279.192 210.485 278.384 209.781 277.776C209.077 277.168 208.205 276.864 207.165 276.864C206.221 276.864 205.413 277.168 204.741 277.776C204.069 278.368 203.669 279.176 203.541 280.2H210.861ZM217.513 288.168C217.017 288.168 216.601 288 216.265 287.664C215.929 287.328 215.761 286.912 215.761 286.416C215.761 285.92 215.929 285.504 216.265 285.168C216.601 284.832 217.017 284.664 217.513 284.664C217.993 284.664 218.401 284.832 218.737 285.168C219.073 285.504 219.241 285.92 219.241 286.416C219.241 286.912 219.073 287.328 218.737 287.664C218.401 288 217.993 288.168 217.513 288.168Z" fill="#4D4D4D"/>
<defs>
<clipPath id="clip0_5_260">
<rect width="38" height="38" fill="white" transform="translate(131.5 29)"/>
</clipPath>
</defs>
</svg>
