<svg width="302" height="238" viewBox="0 0 302 238" fill="none" xmlns="http://www.w3.org/2000/svg">
<rect width="302" height="238" fill="white"/>
<rect x="111" y="8" width="80" height="80" rx="40" fill="#00685E"/>
<g clip-path="url(#clip0_5_266)">
<path d="M147.029 44.6602C146.745 45.1178 146.417 45.5322 146.046 45.9033C145.675 46.2744 145.254 46.6084 144.784 46.9053L145.73 49.2061L143.541 50.0967L142.595 47.8145C142.1 47.9382 141.568 48 140.999 48C140.43 48 139.898 47.9382 139.403 47.8145L138.457 50.0967L136.268 49.2061L137.214 46.9053C136.756 46.6208 136.342 46.293 135.971 45.9219C135.6 45.5508 135.266 45.1302 134.969 44.6602L132.668 45.6064L131.777 43.417L134.06 42.4707C133.936 41.9759 133.874 41.444 133.874 40.875C133.874 40.306 133.936 39.7741 134.06 39.2793L131.777 38.333L132.668 36.1436L134.969 37.0898C135.538 36.1621 136.286 35.4137 137.214 34.8447L136.268 32.5439L138.457 31.6533L139.403 33.9355C139.898 33.8118 140.43 33.75 140.999 33.75C141.568 33.75 142.1 33.8118 142.595 33.9355L143.541 31.6533L145.73 32.5439L144.784 34.8447C145.712 35.4137 146.46 36.1621 147.029 37.0898L149.33 36.1436L150.221 38.333L147.938 39.2793C148.062 39.7741 148.124 40.306 148.124 40.875C148.124 41.444 148.062 41.9759 147.938 42.4707L150.221 43.417L149.33 45.6064L147.029 44.6602ZM140.999 45.625C141.655 45.625 142.267 45.5013 142.836 45.2539C143.405 45.0065 143.912 44.6663 144.357 44.2334C144.803 43.8005 145.143 43.2995 145.378 42.7305C145.613 42.1615 145.737 41.543 145.749 40.875C145.749 40.2194 145.625 39.6071 145.378 39.0381C145.131 38.4691 144.79 37.9619 144.357 37.5166C143.924 37.0713 143.424 36.7311 142.854 36.4961C142.285 36.2611 141.667 36.1374 140.999 36.125C140.343 36.125 139.731 36.2487 139.162 36.4961C138.593 36.7435 138.086 37.0837 137.641 37.5166C137.195 37.9495 136.855 38.4505 136.62 39.0195C136.385 39.5885 136.261 40.207 136.249 40.875C136.249 41.5306 136.373 42.1429 136.62 42.7119C136.868 43.2809 137.208 43.7881 137.641 44.2334C138.074 44.6787 138.575 45.0189 139.144 45.2539C139.713 45.4889 140.331 45.6126 140.999 45.625ZM167.124 53.9375C167.124 54.6178 167.037 55.3044 166.864 55.9971L169.406 57.0361L168.516 59.2441L165.955 58.1865C165.225 59.3988 164.26 60.3636 163.061 61.0811L164.118 63.623L161.91 64.5322L160.871 61.9902C160.178 62.1634 159.492 62.25 158.812 62.25C158.131 62.25 157.445 62.1634 156.752 61.9902L155.713 64.5322L153.505 63.623L154.562 61.0811C153.35 60.3636 152.385 59.3988 151.668 58.1865L149.107 59.2441L148.217 57.0361L150.759 55.9971C150.586 55.3044 150.499 54.6178 150.499 53.9375C150.499 53.2572 150.586 52.5706 150.759 51.8779L148.217 50.8389L149.107 48.6309L151.668 49.6885C152.385 48.4886 153.35 47.5238 154.562 46.7939L153.505 44.2334L155.713 43.3428L156.752 45.8848C157.445 45.7116 158.131 45.625 158.812 45.625C159.492 45.625 160.178 45.7116 160.871 45.8848L161.91 43.3428L164.118 44.2334L163.061 46.7939C164.26 47.5238 165.225 48.4886 165.955 49.6885L168.516 48.6309L169.406 50.8389L166.864 51.8779C167.037 52.5706 167.124 53.2572 167.124 53.9375ZM158.812 59.875C159.628 59.875 160.395 59.7204 161.112 59.4111C161.83 59.1019 162.454 58.6813 162.986 58.1494C163.518 57.6175 163.945 56.9867 164.267 56.2568C164.588 55.527 164.749 54.7539 164.749 53.9375C164.749 53.1211 164.594 52.3542 164.285 51.6367C163.976 50.9193 163.549 50.2946 163.005 49.7627C162.461 49.2308 161.83 48.804 161.112 48.4824C160.395 48.1608 159.628 48 158.812 48C157.995 48 157.228 48.1546 156.511 48.4639C155.793 48.7731 155.162 49.1999 154.618 49.7441C154.074 50.2884 153.647 50.9193 153.338 51.6367C153.029 52.3542 152.874 53.1211 152.874 53.9375C152.874 54.7539 153.029 55.5208 153.338 56.2383C153.647 56.9557 154.068 57.5866 154.6 58.1309C155.132 58.6751 155.762 59.1019 156.492 59.4111C157.222 59.7204 157.995 59.875 158.812 59.875Z" fill="white"/>
</g>
<path d="M64.7839 139.224C63.1412 139.224 61.6692 138.957 60.3679 138.424C59.0665 137.891 58.0212 137.101 57.2319 136.056C56.4639 135.011 56.0585 133.752 56.0159 132.28H61.8399C61.9252 133.112 62.2132 133.752 62.7039 134.2C63.1945 134.627 63.8345 134.84 64.6239 134.84C65.4345 134.84 66.0745 134.659 66.5439 134.296C67.0132 133.912 67.2479 133.389 67.2479 132.728C67.2479 132.173 67.0559 131.715 66.6719 131.352C66.3092 130.989 65.8505 130.691 65.2959 130.456C64.7625 130.221 63.9945 129.955 62.9919 129.656C61.5412 129.208 60.3572 128.76 59.4399 128.312C58.5225 127.864 57.7332 127.203 57.0719 126.328C56.4105 125.453 56.0799 124.312 56.0799 122.904C56.0799 120.813 56.8372 119.181 58.3519 118.008C59.8665 116.813 61.8399 116.216 64.2719 116.216C66.7465 116.216 68.7412 116.813 70.2559 118.008C71.7705 119.181 72.5812 120.824 72.6879 122.936H66.7679C66.7252 122.211 66.4585 121.645 65.9679 121.24C65.4772 120.813 64.8479 120.6 64.0799 120.6C63.4185 120.6 62.8852 120.781 62.4799 121.144C62.0745 121.485 61.8719 121.987 61.8719 122.648C61.8719 123.373 62.2132 123.939 62.8959 124.344C63.5785 124.749 64.6452 125.187 66.0959 125.656C67.5465 126.147 68.7199 126.616 69.6159 127.064C70.5332 127.512 71.3225 128.163 71.9839 129.016C72.6452 129.869 72.9759 130.968 72.9759 132.312C72.9759 133.592 72.6452 134.755 71.9839 135.8C71.3439 136.845 70.4052 137.677 69.1679 138.296C67.9305 138.915 66.4692 139.224 64.7839 139.224ZM75.2554 130.04C75.2554 128.205 75.5967 126.595 76.2794 125.208C76.9834 123.821 77.9327 122.755 79.1274 122.008C80.322 121.261 81.6554 120.888 83.1274 120.888C84.386 120.888 85.4847 121.144 86.4234 121.656C87.3834 122.168 88.1194 122.84 88.6314 123.672V121.144H94.1034V139H88.6314V136.472C88.098 137.304 87.3514 137.976 86.3914 138.488C85.4527 139 84.354 139.256 83.0954 139.256C81.6447 139.256 80.322 138.883 79.1274 138.136C77.9327 137.368 76.9834 136.291 76.2794 134.904C75.5967 133.496 75.2554 131.875 75.2554 130.04ZM88.6314 130.072C88.6314 128.707 88.2474 127.629 87.4794 126.84C86.7327 126.051 85.8154 125.656 84.7274 125.656C83.6394 125.656 82.7114 126.051 81.9434 126.84C81.1967 127.608 80.8234 128.675 80.8234 130.04C80.8234 131.405 81.1967 132.493 81.9434 133.304C82.7114 134.093 83.6394 134.488 84.7274 134.488C85.8154 134.488 86.7327 134.093 87.4794 133.304C88.2474 132.515 88.6314 131.437 88.6314 130.072ZM103.534 115.32V139H98.0621V115.32H103.534ZM124.332 129.784C124.332 130.296 124.3 130.829 124.236 131.384H111.852C111.937 132.493 112.289 133.347 112.908 133.944C113.548 134.52 114.326 134.808 115.244 134.808C116.609 134.808 117.558 134.232 118.092 133.08H123.916C123.617 134.253 123.073 135.309 122.284 136.248C121.516 137.187 120.545 137.923 119.372 138.456C118.198 138.989 116.886 139.256 115.436 139.256C113.686 139.256 112.129 138.883 110.764 138.136C109.398 137.389 108.332 136.323 107.564 134.936C106.796 133.549 106.412 131.928 106.412 130.072C106.412 128.216 106.785 126.595 107.532 125.208C108.3 123.821 109.366 122.755 110.732 122.008C112.097 121.261 113.665 120.888 115.436 120.888C117.164 120.888 118.7 121.251 120.044 121.976C121.388 122.701 122.433 123.736 123.18 125.08C123.948 126.424 124.332 127.992 124.332 129.784ZM118.732 128.344C118.732 127.405 118.412 126.659 117.772 126.104C117.132 125.549 116.332 125.272 115.372 125.272C114.454 125.272 113.676 125.539 113.036 126.072C112.417 126.605 112.033 127.363 111.884 128.344H118.732ZM134.482 139.256C132.925 139.256 131.538 138.989 130.322 138.456C129.106 137.923 128.146 137.197 127.442 136.28C126.738 135.341 126.344 134.296 126.258 133.144H131.666C131.73 133.763 132.018 134.264 132.53 134.648C133.042 135.032 133.672 135.224 134.418 135.224C135.101 135.224 135.624 135.096 135.986 134.84C136.37 134.563 136.562 134.211 136.562 133.784C136.562 133.272 136.296 132.899 135.762 132.664C135.229 132.408 134.365 132.131 133.17 131.832C131.89 131.533 130.824 131.224 129.97 130.904C129.117 130.563 128.381 130.04 127.762 129.336C127.144 128.611 126.834 127.64 126.834 126.424C126.834 125.4 127.112 124.472 127.666 123.64C128.242 122.787 129.074 122.115 130.162 121.624C131.272 121.133 132.584 120.888 134.098 120.888C136.338 120.888 138.098 121.443 139.378 122.552C140.68 123.661 141.426 125.133 141.618 126.968H136.562C136.477 126.349 136.2 125.859 135.73 125.496C135.282 125.133 134.685 124.952 133.938 124.952C133.298 124.952 132.808 125.08 132.466 125.336C132.125 125.571 131.954 125.901 131.954 126.328C131.954 126.84 132.221 127.224 132.754 127.48C133.309 127.736 134.162 127.992 135.314 128.248C136.637 128.589 137.714 128.931 138.546 129.272C139.378 129.592 140.104 130.125 140.722 130.872C141.362 131.597 141.693 132.579 141.714 133.816C141.714 134.861 141.416 135.8 140.818 136.632C140.242 137.443 139.4 138.083 138.29 138.552C137.202 139.021 135.933 139.256 134.482 139.256ZM150.915 127.736C150.915 125.517 151.395 123.544 152.355 121.816C153.315 120.067 154.649 118.712 156.355 117.752C158.083 116.771 160.035 116.28 162.211 116.28C164.878 116.28 167.161 116.984 169.059 118.392C170.958 119.8 172.227 121.72 172.867 124.152H166.851C166.403 123.213 165.763 122.499 164.931 122.008C164.121 121.517 163.193 121.272 162.147 121.272C160.462 121.272 159.097 121.859 158.051 123.032C157.006 124.205 156.483 125.773 156.483 127.736C156.483 129.699 157.006 131.267 158.051 132.44C159.097 133.613 160.462 134.2 162.147 134.2C163.193 134.2 164.121 133.955 164.931 133.464C165.763 132.973 166.403 132.259 166.851 131.32H172.867C172.227 133.752 170.958 135.672 169.059 137.08C167.161 138.467 164.878 139.16 162.211 139.16C160.035 139.16 158.083 138.68 156.355 137.72C154.649 136.739 153.315 135.384 152.355 133.656C151.395 131.928 150.915 129.955 150.915 127.736ZM181.69 115.32V139H176.218V115.32H181.69ZM193.784 139.256C192.035 139.256 190.456 138.883 189.048 138.136C187.661 137.389 186.563 136.323 185.752 134.936C184.963 133.549 184.568 131.928 184.568 130.072C184.568 128.237 184.973 126.627 185.784 125.24C186.595 123.832 187.704 122.755 189.112 122.008C190.52 121.261 192.099 120.888 193.848 120.888C195.597 120.888 197.176 121.261 198.584 122.008C199.992 122.755 201.101 123.832 201.912 125.24C202.723 126.627 203.128 128.237 203.128 130.072C203.128 131.907 202.712 133.528 201.88 134.936C201.069 136.323 199.949 137.389 198.52 138.136C197.112 138.883 195.533 139.256 193.784 139.256ZM193.784 134.52C194.829 134.52 195.715 134.136 196.44 133.368C197.187 132.6 197.56 131.501 197.56 130.072C197.56 128.643 197.197 127.544 196.472 126.776C195.768 126.008 194.893 125.624 193.848 125.624C192.781 125.624 191.896 126.008 191.192 126.776C190.488 127.523 190.136 128.621 190.136 130.072C190.136 131.501 190.477 132.6 191.16 133.368C191.864 134.136 192.739 134.52 193.784 134.52ZM223.663 121.144V139H218.191V136.568C217.636 137.357 216.879 137.997 215.919 138.488C214.98 138.957 213.935 139.192 212.783 139.192C211.418 139.192 210.212 138.893 209.167 138.296C208.122 137.677 207.311 136.792 206.735 135.64C206.159 134.488 205.871 133.133 205.871 131.576V121.144H211.311V130.84C211.311 132.035 211.62 132.963 212.239 133.624C212.858 134.285 213.69 134.616 214.735 134.616C215.802 134.616 216.644 134.285 217.263 133.624C217.882 132.963 218.191 132.035 218.191 130.84V121.144H223.663ZM226.505 130.04C226.505 128.205 226.847 126.595 227.529 125.208C228.233 123.821 229.183 122.755 230.377 122.008C231.572 121.261 232.905 120.888 234.377 120.888C235.551 120.888 236.617 121.133 237.577 121.624C238.559 122.115 239.327 122.776 239.881 123.608V115.32H245.353V139H239.881V136.44C239.369 137.293 238.633 137.976 237.673 138.488C236.735 139 235.636 139.256 234.377 139.256C232.905 139.256 231.572 138.883 230.377 138.136C229.183 137.368 228.233 136.291 227.529 134.904C226.847 133.496 226.505 131.875 226.505 130.04ZM239.881 130.072C239.881 128.707 239.497 127.629 238.729 126.84C237.983 126.051 237.065 125.656 235.977 125.656C234.889 125.656 233.961 126.051 233.193 126.84C232.447 127.608 232.073 128.675 232.073 130.04C232.073 131.405 232.447 132.493 233.193 133.304C233.961 134.093 234.889 134.488 235.977 134.488C237.065 134.488 237.983 134.093 238.729 133.304C239.497 132.515 239.881 131.437 239.881 130.072Z" fill="black"/>
<path d="M38.3368 177.528V182.424H44.0968V184.656H38.3368V189.768H44.8168V192H35.6008V175.296H44.8168V177.528H38.3368ZM54.8587 178.56C55.8987 178.56 56.8267 178.776 57.6427 179.208C58.4747 179.64 59.1227 180.28 59.5867 181.128C60.0507 181.976 60.2827 183 60.2827 184.2V192H57.5707V184.608C57.5707 183.424 57.2747 182.52 56.6827 181.896C56.0907 181.256 55.2827 180.936 54.2587 180.936C53.2347 180.936 52.4187 181.256 51.8107 181.896C51.2187 182.52 50.9227 183.424 50.9227 184.608V192H48.1867V178.776H50.9227V180.288C51.3707 179.744 51.9387 179.32 52.6267 179.016C53.3307 178.712 54.0747 178.56 54.8587 178.56ZM70.6127 178.56C71.6207 178.56 72.5167 178.776 73.3007 179.208C74.1007 179.64 74.7247 180.28 75.1727 181.128C75.6367 181.976 75.8687 183 75.8687 184.2V192H73.1567V184.608C73.1567 183.424 72.8607 182.52 72.2687 181.896C71.6767 181.256 70.8687 180.936 69.8447 180.936C68.8207 180.936 68.0047 181.256 67.3967 181.896C66.8047 182.52 66.5087 183.424 66.5087 184.608V192H63.7727V174.24H66.5087V180.312C66.9727 179.752 67.5567 179.32 68.2607 179.016C68.9807 178.712 69.7647 178.56 70.6127 178.56ZM78.4466 185.328C78.4466 184 78.7186 182.824 79.2626 181.8C79.8226 180.776 80.5746 179.984 81.5186 179.424C82.4786 178.848 83.5346 178.56 84.6866 178.56C85.7266 178.56 86.6306 178.768 87.3986 179.184C88.1826 179.584 88.8066 180.088 89.2706 180.696V178.776H92.0306V192H89.2706V190.032C88.8066 190.656 88.1746 191.176 87.3746 191.592C86.5746 192.008 85.6626 192.216 84.6386 192.216C83.5026 192.216 82.4626 191.928 81.5186 191.352C80.5746 190.76 79.8226 189.944 79.2626 188.904C78.7186 187.848 78.4466 186.656 78.4466 185.328ZM89.2706 185.376C89.2706 184.464 89.0786 183.672 88.6946 183C88.3266 182.328 87.8386 181.816 87.2306 181.464C86.6226 181.112 85.9666 180.936 85.2626 180.936C84.5586 180.936 83.9026 181.112 83.2946 181.464C82.6866 181.8 82.1906 182.304 81.8066 182.976C81.4386 183.632 81.2546 184.416 81.2546 185.328C81.2546 186.24 81.4386 187.04 81.8066 187.728C82.1906 188.416 82.6866 188.944 83.2946 189.312C83.9186 189.664 84.5746 189.84 85.2626 189.84C85.9666 189.84 86.6226 189.664 87.2306 189.312C87.8386 188.96 88.3266 188.448 88.6946 187.776C89.0786 187.088 89.2706 186.288 89.2706 185.376ZM102.296 178.56C103.336 178.56 104.264 178.776 105.08 179.208C105.912 179.64 106.56 180.28 107.024 181.128C107.488 181.976 107.72 183 107.72 184.2V192H105.008V184.608C105.008 183.424 104.712 182.52 104.12 181.896C103.528 181.256 102.72 180.936 101.696 180.936C100.672 180.936 99.8562 181.256 99.2482 181.896C98.6562 182.52 98.3602 183.424 98.3602 184.608V192H95.6242V178.776H98.3602V180.288C98.8082 179.744 99.3762 179.32 100.064 179.016C100.768 178.712 101.512 178.56 102.296 178.56ZM110.298 185.376C110.298 184.016 110.57 182.824 111.114 181.8C111.674 180.76 112.442 179.96 113.418 179.4C114.394 178.84 115.514 178.56 116.778 178.56C118.378 178.56 119.698 178.944 120.738 179.712C121.794 180.464 122.506 181.544 122.874 182.952H119.922C119.682 182.296 119.298 181.784 118.77 181.416C118.242 181.048 117.578 180.864 116.778 180.864C115.658 180.864 114.762 181.264 114.09 182.064C113.434 182.848 113.106 183.952 113.106 185.376C113.106 186.8 113.434 187.912 114.09 188.712C114.762 189.512 115.658 189.912 116.778 189.912C118.362 189.912 119.41 189.216 119.922 187.824H122.874C122.49 189.168 121.77 190.24 120.714 191.04C119.658 191.824 118.346 192.216 116.778 192.216C115.514 192.216 114.394 191.936 113.418 191.376C112.442 190.8 111.674 190 111.114 188.976C110.57 187.936 110.298 186.736 110.298 185.376ZM137.721 185.064C137.721 185.56 137.689 186.008 137.625 186.408H127.521C127.601 187.464 127.993 188.312 128.697 188.952C129.401 189.592 130.265 189.912 131.289 189.912C132.761 189.912 133.801 189.296 134.409 188.064H137.361C136.961 189.28 136.233 190.28 135.177 191.064C134.137 191.832 132.841 192.216 131.289 192.216C130.025 192.216 128.889 191.936 127.881 191.376C126.889 190.8 126.105 190 125.529 188.976C124.969 187.936 124.689 186.736 124.689 185.376C124.689 184.016 124.961 182.824 125.505 181.8C126.065 180.76 126.841 179.96 127.833 179.4C128.841 178.84 129.993 178.56 131.289 178.56C132.537 178.56 133.649 178.832 134.625 179.376C135.601 179.92 136.361 180.688 136.905 181.68C137.449 182.656 137.721 183.784 137.721 185.064ZM134.865 184.2C134.849 183.192 134.489 182.384 133.785 181.776C133.081 181.168 132.209 180.864 131.169 180.864C130.225 180.864 129.417 181.168 128.745 181.776C128.073 182.368 127.673 183.176 127.545 184.2H134.865ZM158.552 178.776L150.44 198.216H147.608L150.296 191.784L145.088 178.776H148.136L151.856 188.856L155.72 178.776H158.552ZM166.352 192.216C165.104 192.216 163.976 191.936 162.968 191.376C161.96 190.8 161.168 190 160.592 188.976C160.016 187.936 159.728 186.736 159.728 185.376C159.728 184.032 160.024 182.84 160.616 181.8C161.208 180.76 162.016 179.96 163.04 179.4C164.064 178.84 165.208 178.56 166.472 178.56C167.736 178.56 168.88 178.84 169.904 179.4C170.928 179.96 171.736 180.76 172.328 181.8C172.92 182.84 173.216 184.032 173.216 185.376C173.216 186.72 172.912 187.912 172.304 188.952C171.696 189.992 170.864 190.8 169.808 191.376C168.768 191.936 167.616 192.216 166.352 192.216ZM166.352 189.84C167.056 189.84 167.712 189.672 168.32 189.336C168.944 189 169.448 188.496 169.832 187.824C170.216 187.152 170.408 186.336 170.408 185.376C170.408 184.416 170.224 183.608 169.856 182.952C169.488 182.28 169 181.776 168.392 181.44C167.784 181.104 167.128 180.936 166.424 180.936C165.72 180.936 165.064 181.104 164.456 181.44C163.864 181.776 163.392 182.28 163.04 182.952C162.688 183.608 162.512 184.416 162.512 185.376C162.512 186.8 162.872 187.904 163.592 188.688C164.328 189.456 165.248 189.84 166.352 189.84ZM187.897 178.776V192H185.161V190.44C184.729 190.984 184.161 191.416 183.457 191.736C182.769 192.04 182.033 192.192 181.249 192.192C180.209 192.192 179.273 191.976 178.441 191.544C177.625 191.112 176.977 190.472 176.497 189.624C176.033 188.776 175.801 187.752 175.801 186.552V178.776H178.513V186.144C178.513 187.328 178.809 188.24 179.401 188.88C179.993 189.504 180.801 189.816 181.825 189.816C182.849 189.816 183.657 189.504 184.249 188.88C184.857 188.24 185.161 187.328 185.161 186.144V178.776H187.897ZM194.243 180.696C194.643 180.024 195.171 179.504 195.827 179.136C196.499 178.752 197.291 178.56 198.203 178.56V181.392H197.507C196.435 181.392 195.619 181.664 195.059 182.208C194.515 182.752 194.243 183.696 194.243 185.04V192H191.507V178.776H194.243V180.696ZM211.752 192.216C210.712 192.216 209.776 192.032 208.944 191.664C208.128 191.28 207.48 190.768 207 190.128C206.52 189.472 206.264 188.744 206.232 187.944H209.064C209.112 188.504 209.376 188.976 209.856 189.36C210.352 189.728 210.968 189.912 211.704 189.912C212.472 189.912 213.064 189.768 213.48 189.48C213.912 189.176 214.128 188.792 214.128 188.328C214.128 187.832 213.888 187.464 213.408 187.224C212.944 186.984 212.2 186.72 211.176 186.432C210.184 186.16 209.376 185.896 208.752 185.64C208.128 185.384 207.584 184.992 207.12 184.464C206.672 183.936 206.448 183.24 206.448 182.376C206.448 181.672 206.656 181.032 207.072 180.456C207.488 179.864 208.08 179.4 208.848 179.064C209.632 178.728 210.528 178.56 211.536 178.56C213.04 178.56 214.248 178.944 215.16 179.712C216.088 180.464 216.584 181.496 216.648 182.808H213.912C213.864 182.216 213.624 181.744 213.192 181.392C212.76 181.04 212.176 180.864 211.44 180.864C210.72 180.864 210.168 181 209.784 181.272C209.4 181.544 209.208 181.904 209.208 182.352C209.208 182.704 209.336 183 209.592 183.24C209.848 183.48 210.16 183.672 210.528 183.816C210.896 183.944 211.44 184.112 212.16 184.32C213.12 184.576 213.904 184.84 214.512 185.112C215.136 185.368 215.672 185.752 216.12 186.264C216.568 186.776 216.8 187.456 216.816 188.304C216.816 189.056 216.608 189.728 216.192 190.32C215.776 190.912 215.184 191.376 214.416 191.712C213.664 192.048 212.776 192.216 211.752 192.216ZM218.861 185.328C218.861 184 219.133 182.824 219.677 181.8C220.237 180.776 220.989 179.984 221.933 179.424C222.893 178.848 223.949 178.56 225.101 178.56C226.141 178.56 227.045 178.768 227.813 179.184C228.597 179.584 229.221 180.088 229.685 180.696V178.776H232.445V192H229.685V190.032C229.221 190.656 228.589 191.176 227.789 191.592C226.989 192.008 226.077 192.216 225.053 192.216C223.917 192.216 222.877 191.928 221.933 191.352C220.989 190.76 220.237 189.944 219.677 188.904C219.133 187.848 218.861 186.656 218.861 185.328ZM229.685 185.376C229.685 184.464 229.493 183.672 229.109 183C228.741 182.328 228.253 181.816 227.645 181.464C227.037 181.112 226.381 180.936 225.677 180.936C224.973 180.936 224.317 181.112 223.709 181.464C223.101 181.8 222.605 182.304 222.221 182.976C221.853 183.632 221.669 184.416 221.669 185.328C221.669 186.24 221.853 187.04 222.221 187.728C222.605 188.416 223.101 188.944 223.709 189.312C224.333 189.664 224.989 189.84 225.677 189.84C226.381 189.84 227.037 189.664 227.645 189.312C228.253 188.96 228.741 188.448 229.109 187.776C229.493 187.088 229.685 186.288 229.685 185.376ZM238.774 174.24V192H236.038V174.24H238.774ZM254.486 185.064C254.486 185.56 254.454 186.008 254.39 186.408H244.286C244.366 187.464 244.758 188.312 245.462 188.952C246.166 189.592 247.03 189.912 248.054 189.912C249.526 189.912 250.566 189.296 251.174 188.064H254.126C253.726 189.28 252.998 190.28 251.942 191.064C250.902 191.832 249.606 192.216 248.054 192.216C246.79 192.216 245.654 191.936 244.646 191.376C243.654 190.8 242.87 190 242.294 188.976C241.734 187.936 241.454 186.736 241.454 185.376C241.454 184.016 241.726 182.824 242.27 181.8C242.83 180.76 243.606 179.96 244.598 179.4C245.606 178.84 246.758 178.56 248.054 178.56C249.302 178.56 250.414 178.832 251.39 179.376C252.366 179.92 253.126 180.688 253.67 181.68C254.214 182.656 254.486 183.784 254.486 185.064ZM251.63 184.2C251.614 183.192 251.254 182.384 250.55 181.776C249.846 181.168 248.974 180.864 247.934 180.864C246.99 180.864 246.182 181.168 245.51 181.776C244.838 182.368 244.438 183.176 244.31 184.2H251.63ZM261.979 192.216C260.939 192.216 260.003 192.032 259.171 191.664C258.355 191.28 257.707 190.768 257.227 190.128C256.747 189.472 256.491 188.744 256.459 187.944H259.291C259.339 188.504 259.603 188.976 260.083 189.36C260.579 189.728 261.195 189.912 261.931 189.912C262.699 189.912 263.291 189.768 263.707 189.48C264.139 189.176 264.355 188.792 264.355 188.328C264.355 187.832 264.115 187.464 263.635 187.224C263.171 186.984 262.427 186.72 261.403 186.432C260.411 186.16 259.603 185.896 258.979 185.64C258.355 185.384 257.811 184.992 257.347 184.464C256.899 183.936 256.675 183.24 256.675 182.376C256.675 181.672 256.883 181.032 257.299 180.456C257.715 179.864 258.307 179.4 259.075 179.064C259.859 178.728 260.755 178.56 261.763 178.56C263.267 178.56 264.475 178.944 265.387 179.712C266.315 180.464 266.811 181.496 266.875 182.808H264.139C264.091 182.216 263.851 181.744 263.419 181.392C262.987 181.04 262.403 180.864 261.667 180.864C260.947 180.864 260.395 181 260.011 181.272C259.627 181.544 259.435 181.904 259.435 182.352C259.435 182.704 259.563 183 259.819 183.24C260.075 183.48 260.387 183.672 260.755 183.816C261.123 183.944 261.667 184.112 262.387 184.32C263.347 184.576 264.131 184.84 264.739 185.112C265.363 185.368 265.899 185.752 266.347 186.264C266.795 186.776 267.027 187.456 267.043 188.304C267.043 189.056 266.835 189.728 266.419 190.32C266.003 190.912 265.411 191.376 264.643 191.712C263.891 192.048 263.003 192.216 261.979 192.216ZM69.1024 212.72C69.5664 212.112 70.1984 211.6 70.9984 211.184C71.7984 210.768 72.7024 210.56 73.7104 210.56C74.8624 210.56 75.9104 210.848 76.8544 211.424C77.8144 211.984 78.5664 212.776 79.1104 213.8C79.6544 214.824 79.9264 216 79.9264 217.328C79.9264 218.656 79.6544 219.848 79.1104 220.904C78.5664 221.944 77.8144 222.76 76.8544 223.352C75.9104 223.928 74.8624 224.216 73.7104 224.216C72.7024 224.216 71.8064 224.016 71.0224 223.616C70.2384 223.2 69.5984 222.688 69.1024 222.08V230.288H66.3664V210.776H69.1024V212.72ZM77.1424 217.328C77.1424 216.416 76.9504 215.632 76.5664 214.976C76.1984 214.304 75.7024 213.8 75.0784 213.464C74.4704 213.112 73.8144 212.936 73.1104 212.936C72.4224 212.936 71.7664 213.112 71.1424 213.464C70.5344 213.816 70.0384 214.328 69.6544 215C69.2864 215.672 69.1024 216.464 69.1024 217.376C69.1024 218.288 69.2864 219.088 69.6544 219.776C70.0384 220.448 70.5344 220.96 71.1424 221.312C71.7664 221.664 72.4224 221.84 73.1104 221.84C73.8144 221.84 74.4704 221.664 75.0784 221.312C75.7024 220.944 76.1984 220.416 76.5664 219.728C76.9504 219.04 77.1424 218.24 77.1424 217.328ZM94.752 217.064C94.752 217.56 94.72 218.008 94.656 218.408H84.552C84.632 219.464 85.024 220.312 85.728 220.952C86.432 221.592 87.296 221.912 88.32 221.912C89.792 221.912 90.832 221.296 91.44 220.064H94.392C93.992 221.28 93.264 222.28 92.208 223.064C91.168 223.832 89.872 224.216 88.32 224.216C87.056 224.216 85.92 223.936 84.912 223.376C83.92 222.8 83.136 222 82.56 220.976C82 219.936 81.72 218.736 81.72 217.376C81.72 216.016 81.992 214.824 82.536 213.8C83.096 212.76 83.872 211.96 84.864 211.4C85.872 210.84 87.024 210.56 88.32 210.56C89.568 210.56 90.68 210.832 91.656 211.376C92.632 211.92 93.392 212.688 93.936 213.68C94.48 214.656 94.752 215.784 94.752 217.064ZM91.896 216.2C91.88 215.192 91.52 214.384 90.816 213.776C90.112 213.168 89.24 212.864 88.2 212.864C87.256 212.864 86.448 213.168 85.776 213.776C85.104 214.368 84.704 215.176 84.576 216.2H91.896ZM100.181 212.696C100.581 212.024 101.109 211.504 101.765 211.136C102.437 210.752 103.229 210.56 104.141 210.56V213.392H103.445C102.373 213.392 101.557 213.664 100.997 214.208C100.453 214.752 100.181 215.696 100.181 217.04V224H97.4445V210.776H100.181V212.696ZM112.199 213.008H109.751V224H106.991V213.008H105.431V210.776H106.991V209.84C106.991 208.32 107.391 207.216 108.191 206.528C109.007 205.824 110.279 205.472 112.007 205.472V207.752C111.175 207.752 110.591 207.912 110.255 208.232C109.919 208.536 109.751 209.072 109.751 209.84V210.776H112.199V213.008ZM120.36 224.216C119.112 224.216 117.984 223.936 116.976 223.376C115.968 222.8 115.176 222 114.6 220.976C114.024 219.936 113.736 218.736 113.736 217.376C113.736 216.032 114.032 214.84 114.624 213.8C115.216 212.76 116.024 211.96 117.048 211.4C118.072 210.84 119.216 210.56 120.48 210.56C121.744 210.56 122.888 210.84 123.912 211.4C124.936 211.96 125.744 212.76 126.336 213.8C126.928 214.84 127.224 216.032 127.224 217.376C127.224 218.72 126.92 219.912 126.312 220.952C125.704 221.992 124.872 222.8 123.816 223.376C122.776 223.936 121.624 224.216 120.36 224.216ZM120.36 221.84C121.064 221.84 121.72 221.672 122.328 221.336C122.952 221 123.456 220.496 123.84 219.824C124.224 219.152 124.416 218.336 124.416 217.376C124.416 216.416 124.232 215.608 123.864 214.952C123.496 214.28 123.008 213.776 122.4 213.44C121.792 213.104 121.136 212.936 120.432 212.936C119.728 212.936 119.072 213.104 118.464 213.44C117.872 213.776 117.4 214.28 117.048 214.952C116.696 215.608 116.52 216.416 116.52 217.376C116.52 218.8 116.88 219.904 117.6 220.688C118.336 221.456 119.256 221.84 120.36 221.84ZM132.665 212.696C133.065 212.024 133.593 211.504 134.249 211.136C134.921 210.752 135.713 210.56 136.625 210.56V213.392H135.929C134.857 213.392 134.041 213.664 133.481 214.208C132.937 214.752 132.665 215.696 132.665 217.04V224H129.929V210.776H132.665V212.696ZM155.148 210.56C156.188 210.56 157.116 210.776 157.932 211.208C158.764 211.64 159.412 212.28 159.876 213.128C160.356 213.976 160.596 215 160.596 216.2V224H157.884V216.608C157.884 215.424 157.588 214.52 156.996 213.896C156.404 213.256 155.596 212.936 154.572 212.936C153.548 212.936 152.732 213.256 152.124 213.896C151.532 214.52 151.236 215.424 151.236 216.608V224H148.524V216.608C148.524 215.424 148.228 214.52 147.636 213.896C147.044 213.256 146.236 212.936 145.212 212.936C144.188 212.936 143.372 213.256 142.764 213.896C142.172 214.52 141.876 215.424 141.876 216.608V224H139.14V210.776H141.876V212.288C142.324 211.744 142.892 211.32 143.58 211.016C144.268 210.712 145.004 210.56 145.788 210.56C146.844 210.56 147.788 210.784 148.62 211.232C149.452 211.68 150.092 212.328 150.54 213.176C150.94 212.376 151.564 211.744 152.412 211.28C153.26 210.8 154.172 210.56 155.148 210.56ZM163.165 217.328C163.165 216 163.437 214.824 163.981 213.8C164.541 212.776 165.293 211.984 166.237 211.424C167.197 210.848 168.253 210.56 169.405 210.56C170.445 210.56 171.349 210.768 172.117 211.184C172.901 211.584 173.525 212.088 173.989 212.696V210.776H176.749V224H173.989V222.032C173.525 222.656 172.893 223.176 172.093 223.592C171.293 224.008 170.381 224.216 169.357 224.216C168.221 224.216 167.181 223.928 166.237 223.352C165.293 222.76 164.541 221.944 163.981 220.904C163.437 219.848 163.165 218.656 163.165 217.328ZM173.989 217.376C173.989 216.464 173.797 215.672 173.413 215C173.045 214.328 172.557 213.816 171.949 213.464C171.341 213.112 170.685 212.936 169.981 212.936C169.277 212.936 168.621 213.112 168.013 213.464C167.405 213.8 166.909 214.304 166.525 214.976C166.157 215.632 165.973 216.416 165.973 217.328C165.973 218.24 166.157 219.04 166.525 219.728C166.909 220.416 167.405 220.944 168.013 221.312C168.637 221.664 169.293 221.84 169.981 221.84C170.685 221.84 171.341 221.664 171.949 221.312C172.557 220.96 173.045 220.448 173.413 219.776C173.797 219.088 173.989 218.288 173.989 217.376ZM187.015 210.56C188.055 210.56 188.983 210.776 189.799 211.208C190.631 211.64 191.279 212.28 191.743 213.128C192.207 213.976 192.439 215 192.439 216.2V224H189.727V216.608C189.727 215.424 189.431 214.52 188.839 213.896C188.247 213.256 187.439 212.936 186.415 212.936C185.391 212.936 184.575 213.256 183.967 213.896C183.375 214.52 183.079 215.424 183.079 216.608V224H180.343V210.776H183.079V212.288C183.527 211.744 184.095 211.32 184.783 211.016C185.487 210.712 186.231 210.56 187.015 210.56ZM195.017 217.376C195.017 216.016 195.289 214.824 195.833 213.8C196.393 212.76 197.161 211.96 198.137 211.4C199.113 210.84 200.233 210.56 201.497 210.56C203.097 210.56 204.417 210.944 205.457 211.712C206.513 212.464 207.225 213.544 207.593 214.952H204.641C204.401 214.296 204.017 213.784 203.489 213.416C202.961 213.048 202.297 212.864 201.497 212.864C200.377 212.864 199.481 213.264 198.809 214.064C198.153 214.848 197.825 215.952 197.825 217.376C197.825 218.8 198.153 219.912 198.809 220.712C199.481 221.512 200.377 221.912 201.497 221.912C203.081 221.912 204.129 221.216 204.641 219.824H207.593C207.209 221.168 206.489 222.24 205.433 223.04C204.377 223.824 203.065 224.216 201.497 224.216C200.233 224.216 199.113 223.936 198.137 223.376C197.161 222.8 196.393 222 195.833 220.976C195.289 219.936 195.017 218.736 195.017 217.376ZM222.44 217.064C222.44 217.56 222.408 218.008 222.344 218.408H212.24C212.32 219.464 212.712 220.312 213.416 220.952C214.12 221.592 214.984 221.912 216.008 221.912C217.48 221.912 218.52 221.296 219.128 220.064H222.08C221.68 221.28 220.952 222.28 219.896 223.064C218.856 223.832 217.56 224.216 216.008 224.216C214.744 224.216 213.608 223.936 212.6 223.376C211.608 222.8 210.824 222 210.248 220.976C209.688 219.936 209.408 218.736 209.408 217.376C209.408 216.016 209.68 214.824 210.224 213.8C210.784 212.76 211.56 211.96 212.552 211.4C213.56 210.84 214.712 210.56 216.008 210.56C217.256 210.56 218.368 210.832 219.344 211.376C220.32 211.92 221.08 212.688 221.624 213.68C222.168 214.656 222.44 215.784 222.44 217.064ZM219.584 216.2C219.568 215.192 219.208 214.384 218.504 213.776C217.8 213.168 216.928 212.864 215.888 212.864C214.944 212.864 214.136 213.168 213.464 213.776C212.792 214.368 212.392 215.176 212.264 216.2H219.584ZM226.236 224.168C225.74 224.168 225.324 224 224.988 223.664C224.652 223.328 224.484 222.912 224.484 222.416C224.484 221.92 224.652 221.504 224.988 221.168C225.324 220.832 225.74 220.664 226.236 220.664C226.716 220.664 227.124 220.832 227.46 221.168C227.796 221.504 227.964 221.92 227.964 222.416C227.964 222.912 227.796 223.328 227.46 223.664C227.124 224 226.716 224.168 226.236 224.168Z" fill="#4D4D4D"/>
<defs>
<clipPath id="clip0_5_266">
<rect width="38" height="38" fill="white" transform="translate(131.5 29)"/>
</clipPath>
</defs>
</svg>
