<svg width="302" height="240" viewBox="0 0 302 240" fill="none" xmlns="http://www.w3.org/2000/svg">
<rect width="302" height="240" fill="white"/>
<rect x="111" y="8" width="80" height="80" rx="40" fill="#00685E"/>
<g clip-path="url(#clip0_5_254)">
<path d="M147.029 44.6602C146.745 45.1178 146.417 45.5322 146.046 45.9033C145.675 46.2744 145.254 46.6084 144.784 46.9053L145.73 49.2061L143.541 50.0967L142.595 47.8145C142.1 47.9382 141.568 48 140.999 48C140.43 48 139.898 47.9382 139.403 47.8145L138.457 50.0967L136.268 49.2061L137.214 46.9053C136.756 46.6208 136.342 46.293 135.971 45.9219C135.6 45.5508 135.266 45.1302 134.969 44.6602L132.668 45.6064L131.777 43.417L134.06 42.4707C133.936 41.9759 133.874 41.444 133.874 40.875C133.874 40.306 133.936 39.7741 134.06 39.2793L131.777 38.333L132.668 36.1436L134.969 37.0898C135.538 36.1621 136.286 35.4137 137.214 34.8447L136.268 32.5439L138.457 31.6533L139.403 33.9355C139.898 33.8118 140.43 33.75 140.999 33.75C141.568 33.75 142.1 33.8118 142.595 33.9355L143.541 31.6533L145.73 32.5439L144.784 34.8447C145.712 35.4137 146.46 36.1621 147.029 37.0898L149.33 36.1436L150.221 38.333L147.938 39.2793C148.062 39.7741 148.124 40.306 148.124 40.875C148.124 41.444 148.062 41.9759 147.938 42.4707L150.221 43.417L149.33 45.6064L147.029 44.6602ZM140.999 45.625C141.655 45.625 142.267 45.5013 142.836 45.2539C143.405 45.0065 143.912 44.6663 144.357 44.2334C144.803 43.8005 145.143 43.2995 145.378 42.7305C145.613 42.1615 145.737 41.543 145.749 40.875C145.749 40.2194 145.625 39.6071 145.378 39.0381C145.131 38.4691 144.79 37.9619 144.357 37.5166C143.924 37.0713 143.424 36.7311 142.854 36.4961C142.285 36.2611 141.667 36.1374 140.999 36.125C140.343 36.125 139.731 36.2487 139.162 36.4961C138.593 36.7435 138.086 37.0837 137.641 37.5166C137.195 37.9495 136.855 38.4505 136.62 39.0195C136.385 39.5885 136.261 40.207 136.249 40.875C136.249 41.5306 136.373 42.1429 136.62 42.7119C136.868 43.2809 137.208 43.7881 137.641 44.2334C138.074 44.6787 138.575 45.0189 139.144 45.2539C139.713 45.4889 140.331 45.6126 140.999 45.625ZM167.124 53.9375C167.124 54.6178 167.037 55.3044 166.864 55.9971L169.406 57.0361L168.516 59.2441L165.955 58.1865C165.225 59.3988 164.26 60.3636 163.061 61.0811L164.118 63.623L161.91 64.5322L160.871 61.9902C160.178 62.1634 159.492 62.25 158.812 62.25C158.131 62.25 157.445 62.1634 156.752 61.9902L155.713 64.5322L153.505 63.623L154.562 61.0811C153.35 60.3636 152.385 59.3988 151.668 58.1865L149.107 59.2441L148.217 57.0361L150.759 55.9971C150.586 55.3044 150.499 54.6178 150.499 53.9375C150.499 53.2572 150.586 52.5706 150.759 51.8779L148.217 50.8389L149.107 48.6309L151.668 49.6885C152.385 48.4886 153.35 47.5238 154.562 46.7939L153.505 44.2334L155.713 43.3428L156.752 45.8848C157.445 45.7116 158.131 45.625 158.812 45.625C159.492 45.625 160.178 45.7116 160.871 45.8848L161.91 43.3428L164.118 44.2334L163.061 46.7939C164.26 47.5238 165.225 48.4886 165.955 49.6885L168.516 48.6309L169.406 50.8389L166.864 51.8779C167.037 52.5706 167.124 53.2572 167.124 53.9375ZM158.812 59.875C159.628 59.875 160.395 59.7204 161.112 59.4111C161.83 59.1019 162.454 58.6813 162.986 58.1494C163.518 57.6175 163.945 56.9867 164.267 56.2568C164.588 55.527 164.749 54.7539 164.749 53.9375C164.749 53.1211 164.594 52.3542 164.285 51.6367C163.976 50.9193 163.549 50.2946 163.005 49.7627C162.461 49.2308 161.83 48.804 161.112 48.4824C160.395 48.1608 159.628 48 158.812 48C157.995 48 157.228 48.1546 156.511 48.4639C155.793 48.7731 155.162 49.1999 154.618 49.7441C154.074 50.2884 153.647 50.9193 153.338 51.6367C153.029 52.3542 152.874 53.1211 152.874 53.9375C152.874 54.7539 153.029 55.5208 153.338 56.2383C153.647 56.9557 154.068 57.5866 154.6 58.1309C155.132 58.6751 155.762 59.1019 156.492 59.4111C157.222 59.7204 157.995 59.875 158.812 59.875Z" fill="white"/>
</g>
<path d="M40.7213 139L36.0493 130.52H34.7373V139H29.2653V116.536H38.4493C40.2199 116.536 41.7239 116.845 42.9613 117.464C44.2199 118.083 45.1586 118.936 45.7773 120.024C46.3959 121.091 46.7053 122.285 46.7053 123.608C46.7053 125.101 46.2786 126.435 45.4253 127.608C44.5933 128.781 43.3559 129.613 41.7133 130.104L46.8973 139H40.7213ZM34.7373 126.648H38.1293C39.1319 126.648 39.8786 126.403 40.3693 125.912C40.8813 125.421 41.1373 124.728 41.1373 123.832C41.1373 122.979 40.8813 122.307 40.3693 121.816C39.8786 121.325 39.1319 121.08 38.1293 121.08H34.7373V126.648ZM66.9722 129.784C66.9722 130.296 66.9403 130.829 66.8763 131.384H54.4923C54.5776 132.493 54.9296 133.347 55.5483 133.944C56.1883 134.52 56.9669 134.808 57.8843 134.808C59.2496 134.808 60.1989 134.232 60.7323 133.08H66.5563C66.2576 134.253 65.7136 135.309 64.9243 136.248C64.1563 137.187 63.1856 137.923 62.0123 138.456C60.8389 138.989 59.5269 139.256 58.0763 139.256C56.3269 139.256 54.7696 138.883 53.4043 138.136C52.0389 137.389 50.9723 136.323 50.2043 134.936C49.4363 133.549 49.0523 131.928 49.0523 130.072C49.0523 128.216 49.4256 126.595 50.1723 125.208C50.9403 123.821 52.0069 122.755 53.3723 122.008C54.7376 121.261 56.3056 120.888 58.0763 120.888C59.8043 120.888 61.3403 121.251 62.6843 121.976C64.0283 122.701 65.0736 123.736 65.8203 125.08C66.5883 126.424 66.9722 127.992 66.9722 129.784ZM61.3723 128.344C61.3723 127.405 61.0523 126.659 60.4123 126.104C59.7723 125.549 58.9723 125.272 58.0123 125.272C57.0949 125.272 56.3163 125.539 55.6763 126.072C55.0576 126.605 54.6736 127.363 54.5243 128.344H61.3723ZM77.891 133.88L81.763 121.144H87.587L81.251 139H74.499L68.163 121.144H74.019L77.891 133.88ZM106.722 129.784C106.722 130.296 106.69 130.829 106.626 131.384H94.2423C94.3276 132.493 94.6796 133.347 95.2983 133.944C95.9383 134.52 96.7169 134.808 97.6343 134.808C98.9996 134.808 99.9489 134.232 100.482 133.08H106.306C106.008 134.253 105.464 135.309 104.674 136.248C103.906 137.187 102.936 137.923 101.762 138.456C100.589 138.989 99.2769 139.256 97.8263 139.256C96.0769 139.256 94.5196 138.883 93.1543 138.136C91.7889 137.389 90.7223 136.323 89.9543 134.936C89.1863 133.549 88.8023 131.928 88.8023 130.072C88.8023 128.216 89.1756 126.595 89.9223 125.208C90.6903 123.821 91.7569 122.755 93.1223 122.008C94.4876 121.261 96.0556 120.888 97.8263 120.888C99.5543 120.888 101.09 121.251 102.434 121.976C103.778 122.701 104.824 123.736 105.57 125.08C106.338 126.424 106.722 127.992 106.722 129.784ZM101.122 128.344C101.122 127.405 100.802 126.659 100.162 126.104C99.5223 125.549 98.7223 125.272 97.7623 125.272C96.8449 125.272 96.0663 125.539 95.4263 126.072C94.8076 126.605 94.4236 127.363 94.2743 128.344H101.122ZM120.489 120.952C122.58 120.952 124.244 121.635 125.481 123C126.74 124.344 127.369 126.2 127.369 128.568V139H121.929V129.304C121.929 128.109 121.62 127.181 121.001 126.52C120.382 125.859 119.55 125.528 118.505 125.528C117.46 125.528 116.628 125.859 116.009 126.52C115.39 127.181 115.081 128.109 115.081 129.304V139H109.609V121.144H115.081V123.512C115.636 122.723 116.382 122.104 117.321 121.656C118.26 121.187 119.316 120.952 120.489 120.952ZM148.804 121.144V139H143.332V136.568C142.777 137.357 142.02 137.997 141.06 138.488C140.121 138.957 139.076 139.192 137.924 139.192C136.558 139.192 135.353 138.893 134.308 138.296C133.262 137.677 132.452 136.792 131.876 135.64C131.3 134.488 131.012 133.133 131.012 131.576V121.144H136.452V130.84C136.452 132.035 136.761 132.963 137.38 133.624C137.998 134.285 138.83 134.616 139.876 134.616C140.942 134.616 141.785 134.285 142.404 133.624C143.022 132.963 143.332 132.035 143.332 130.84V121.144H148.804ZM169.566 129.784C169.566 130.296 169.534 130.829 169.47 131.384H157.086C157.171 132.493 157.523 133.347 158.142 133.944C158.782 134.52 159.561 134.808 160.478 134.808C161.843 134.808 162.793 134.232 163.326 133.08H169.15C168.851 134.253 168.307 135.309 167.518 136.248C166.75 137.187 165.779 137.923 164.606 138.456C163.433 138.989 162.121 139.256 160.67 139.256C158.921 139.256 157.363 138.883 155.998 138.136C154.633 137.389 153.566 136.323 152.798 134.936C152.03 133.549 151.646 131.928 151.646 130.072C151.646 128.216 152.019 126.595 152.766 125.208C153.534 123.821 154.601 122.755 155.966 122.008C157.331 121.261 158.899 120.888 160.67 120.888C162.398 120.888 163.934 121.251 165.278 121.976C166.622 122.701 167.667 123.736 168.414 125.08C169.182 126.424 169.566 127.992 169.566 129.784ZM163.966 128.344C163.966 127.405 163.646 126.659 163.006 126.104C162.366 125.549 161.566 125.272 160.606 125.272C159.689 125.272 158.91 125.539 158.27 126.072C157.651 126.605 157.267 127.363 157.118 128.344H163.966ZM178.306 127.736C178.306 125.517 178.786 123.544 179.746 121.816C180.706 120.067 182.039 118.712 183.746 117.752C185.474 116.771 187.426 116.28 189.602 116.28C192.269 116.28 194.551 116.984 196.45 118.392C198.349 119.8 199.618 121.72 200.258 124.152H194.242C193.794 123.213 193.154 122.499 192.322 122.008C191.511 121.517 190.583 121.272 189.538 121.272C187.853 121.272 186.487 121.859 185.442 123.032C184.397 124.205 183.874 125.773 183.874 127.736C183.874 129.699 184.397 131.267 185.442 132.44C186.487 133.613 187.853 134.2 189.538 134.2C190.583 134.2 191.511 133.955 192.322 133.464C193.154 132.973 193.794 132.259 194.242 131.32H200.258C199.618 133.752 198.349 135.672 196.45 137.08C194.551 138.467 192.269 139.16 189.602 139.16C187.426 139.16 185.474 138.68 183.746 137.72C182.039 136.739 180.706 135.384 179.746 133.656C178.786 131.928 178.306 129.955 178.306 127.736ZM209.081 115.32V139H203.609V115.32H209.081ZM221.175 139.256C219.425 139.256 217.847 138.883 216.439 138.136C215.052 137.389 213.953 136.323 213.143 134.936C212.353 133.549 211.959 131.928 211.959 130.072C211.959 128.237 212.364 126.627 213.174 125.24C213.985 123.832 215.095 122.755 216.503 122.008C217.911 121.261 219.489 120.888 221.239 120.888C222.988 120.888 224.567 121.261 225.975 122.008C227.383 122.755 228.492 123.832 229.303 125.24C230.113 126.627 230.519 128.237 230.519 130.072C230.519 131.907 230.103 133.528 229.271 134.936C228.46 136.323 227.34 137.389 225.911 138.136C224.503 138.883 222.924 139.256 221.175 139.256ZM221.175 134.52C222.22 134.52 223.105 134.136 223.831 133.368C224.577 132.6 224.951 131.501 224.951 130.072C224.951 128.643 224.588 127.544 223.863 126.776C223.159 126.008 222.284 125.624 221.239 125.624C220.172 125.624 219.287 126.008 218.583 126.776C217.879 127.523 217.527 128.621 217.527 130.072C217.527 131.501 217.868 132.6 218.551 133.368C219.255 134.136 220.129 134.52 221.175 134.52ZM251.054 121.144V139H245.582V136.568C245.027 137.357 244.27 137.997 243.31 138.488C242.371 138.957 241.326 139.192 240.174 139.192C238.808 139.192 237.603 138.893 236.558 138.296C235.512 137.677 234.702 136.792 234.126 135.64C233.55 134.488 233.262 133.133 233.262 131.576V121.144H238.702V130.84C238.702 132.035 239.011 132.963 239.63 133.624C240.248 134.285 241.08 134.616 242.126 134.616C243.192 134.616 244.035 134.285 244.654 133.624C245.272 132.963 245.582 132.035 245.582 130.84V121.144H251.054ZM253.896 130.04C253.896 128.205 254.237 126.595 254.92 125.208C255.624 123.821 256.573 122.755 257.768 122.008C258.963 121.261 260.296 120.888 261.768 120.888C262.941 120.888 264.008 121.133 264.968 121.624C265.949 122.115 266.717 122.776 267.272 123.608V115.32H272.744V139H267.272V136.44C266.76 137.293 266.024 137.976 265.064 138.488C264.125 139 263.027 139.256 261.768 139.256C260.296 139.256 258.963 138.883 257.768 138.136C256.573 137.368 255.624 136.291 254.92 134.904C254.237 133.496 253.896 131.875 253.896 130.04ZM267.272 130.072C267.272 128.707 266.888 127.629 266.12 126.84C265.373 126.051 264.456 125.656 263.368 125.656C262.28 125.656 261.352 126.051 260.584 126.84C259.837 127.608 259.464 128.675 259.464 130.04C259.464 131.405 259.837 132.493 260.584 133.304C261.352 134.093 262.28 134.488 263.368 134.488C264.456 134.488 265.373 134.093 266.12 133.304C266.888 132.515 267.272 131.437 267.272 130.072Z" fill="black"/>
<path d="M83.661 175.32V192H80.925V180.576L75.837 192H73.941L68.829 180.576V192H66.093V175.32H69.045L74.901 188.4L80.733 175.32H83.661ZM86.345 185.328C86.345 184 86.617 182.824 87.161 181.8C87.721 180.776 88.473 179.984 89.417 179.424C90.377 178.848 91.433 178.56 92.585 178.56C93.625 178.56 94.529 178.768 95.297 179.184C96.081 179.584 96.705 180.088 97.169 180.696V178.776H99.929V192H97.169V190.032C96.705 190.656 96.073 191.176 95.273 191.592C94.473 192.008 93.561 192.216 92.537 192.216C91.401 192.216 90.361 191.928 89.417 191.352C88.473 190.76 87.721 189.944 87.161 188.904C86.617 187.848 86.345 186.656 86.345 185.328ZM97.169 185.376C97.169 184.464 96.977 183.672 96.593 183C96.225 182.328 95.737 181.816 95.129 181.464C94.521 181.112 93.865 180.936 93.161 180.936C92.457 180.936 91.801 181.112 91.193 181.464C90.585 181.8 90.089 182.304 89.705 182.976C89.337 183.632 89.153 184.416 89.153 185.328C89.153 186.24 89.337 187.04 89.705 187.728C90.089 188.416 90.585 188.944 91.193 189.312C91.817 189.664 92.473 189.84 93.161 189.84C93.865 189.84 94.521 189.664 95.129 189.312C95.737 188.96 96.225 188.448 96.593 187.776C96.977 187.088 97.169 186.288 97.169 185.376ZM109.187 185.304L113.459 192H110.363L107.507 187.512L104.819 192H101.963L106.235 185.496L101.963 178.776H105.059L107.915 183.264L110.603 178.776H113.459L109.187 185.304ZM116.891 177.024C116.395 177.024 115.979 176.856 115.643 176.52C115.307 176.184 115.139 175.768 115.139 175.272C115.139 174.776 115.307 174.36 115.643 174.024C115.979 173.688 116.395 173.52 116.891 173.52C117.371 173.52 117.779 173.688 118.115 174.024C118.451 174.36 118.619 174.776 118.619 175.272C118.619 175.768 118.451 176.184 118.115 176.52C117.779 176.856 117.371 177.024 116.891 177.024ZM118.235 178.776V192H115.499V178.776H118.235ZM137.835 178.56C138.875 178.56 139.803 178.776 140.619 179.208C141.451 179.64 142.099 180.28 142.563 181.128C143.043 181.976 143.283 183 143.283 184.2V192H140.571V184.608C140.571 183.424 140.275 182.52 139.683 181.896C139.091 181.256 138.283 180.936 137.259 180.936C136.235 180.936 135.419 181.256 134.811 181.896C134.219 182.52 133.923 183.424 133.923 184.608V192H131.211V184.608C131.211 183.424 130.915 182.52 130.323 181.896C129.731 181.256 128.923 180.936 127.899 180.936C126.875 180.936 126.059 181.256 125.451 181.896C124.859 182.52 124.563 183.424 124.563 184.608V192H121.827V178.776H124.563V180.288C125.011 179.744 125.579 179.32 126.267 179.016C126.955 178.712 127.691 178.56 128.475 178.56C129.531 178.56 130.475 178.784 131.307 179.232C132.139 179.68 132.779 180.328 133.227 181.176C133.627 180.376 134.251 179.744 135.099 179.28C135.947 178.8 136.859 178.56 137.835 178.56ZM148.157 177.024C147.661 177.024 147.245 176.856 146.909 176.52C146.573 176.184 146.405 175.768 146.405 175.272C146.405 174.776 146.573 174.36 146.909 174.024C147.245 173.688 147.661 173.52 148.157 173.52C148.637 173.52 149.045 173.688 149.381 174.024C149.717 174.36 149.885 174.776 149.885 175.272C149.885 175.768 149.717 176.184 149.381 176.52C149.045 176.856 148.637 177.024 148.157 177.024ZM149.501 178.776V192H146.765V178.776H149.501ZM155.517 189.768H161.517V192H152.349V189.768L158.373 181.008H152.349V178.776H161.517V181.008L155.517 189.768ZM176.51 185.064C176.51 185.56 176.478 186.008 176.414 186.408H166.31C166.39 187.464 166.782 188.312 167.486 188.952C168.19 189.592 169.054 189.912 170.078 189.912C171.55 189.912 172.59 189.296 173.198 188.064H176.15C175.75 189.28 175.022 190.28 173.966 191.064C172.926 191.832 171.63 192.216 170.078 192.216C168.814 192.216 167.678 191.936 166.67 191.376C165.678 190.8 164.894 190 164.318 188.976C163.758 187.936 163.478 186.736 163.478 185.376C163.478 184.016 163.75 182.824 164.294 181.8C164.854 180.76 165.63 179.96 166.622 179.4C167.63 178.84 168.782 178.56 170.078 178.56C171.326 178.56 172.438 178.832 173.414 179.376C174.39 179.92 175.15 180.688 175.694 181.68C176.238 182.656 176.51 183.784 176.51 185.064ZM173.654 184.2C173.638 183.192 173.278 182.384 172.574 181.776C171.87 181.168 170.998 180.864 169.958 180.864C169.014 180.864 168.206 181.168 167.534 181.776C166.862 182.368 166.462 183.176 166.334 184.2H173.654ZM197.341 178.776L189.229 198.216H186.397L189.085 191.784L183.877 178.776H186.925L190.645 188.856L194.509 178.776H197.341ZM205.141 192.216C203.893 192.216 202.765 191.936 201.757 191.376C200.749 190.8 199.957 190 199.381 188.976C198.805 187.936 198.517 186.736 198.517 185.376C198.517 184.032 198.813 182.84 199.405 181.8C199.997 180.76 200.805 179.96 201.829 179.4C202.853 178.84 203.997 178.56 205.261 178.56C206.525 178.56 207.669 178.84 208.693 179.4C209.717 179.96 210.525 180.76 211.117 181.8C211.709 182.84 212.005 184.032 212.005 185.376C212.005 186.72 211.701 187.912 211.093 188.952C210.485 189.992 209.653 190.8 208.597 191.376C207.557 191.936 206.405 192.216 205.141 192.216ZM205.141 189.84C205.845 189.84 206.501 189.672 207.109 189.336C207.733 189 208.237 188.496 208.621 187.824C209.005 187.152 209.197 186.336 209.197 185.376C209.197 184.416 209.013 183.608 208.645 182.952C208.277 182.28 207.789 181.776 207.181 181.44C206.573 181.104 205.917 180.936 205.213 180.936C204.509 180.936 203.853 181.104 203.245 181.44C202.653 181.776 202.181 182.28 201.829 182.952C201.477 183.608 201.301 184.416 201.301 185.376C201.301 186.8 201.661 187.904 202.381 188.688C203.117 189.456 204.037 189.84 205.141 189.84ZM226.686 178.776V192H223.95V190.44C223.518 190.984 222.95 191.416 222.246 191.736C221.558 192.04 220.822 192.192 220.038 192.192C218.998 192.192 218.062 191.976 217.23 191.544C216.414 191.112 215.766 190.472 215.286 189.624C214.822 188.776 214.59 187.752 214.59 186.552V178.776H217.302V186.144C217.302 187.328 217.598 188.24 218.19 188.88C218.782 189.504 219.59 189.816 220.614 189.816C221.638 189.816 222.446 189.504 223.038 188.88C223.646 188.24 223.95 187.328 223.95 186.144V178.776H226.686ZM233.032 180.696C233.432 180.024 233.96 179.504 234.616 179.136C235.288 178.752 236.08 178.56 236.992 178.56V181.392H236.296C235.224 181.392 234.408 181.664 233.848 182.208C233.304 182.752 233.032 183.696 233.032 185.04V192H230.296V178.776H233.032V180.696ZM45.8251 212.696C46.2251 212.024 46.7531 211.504 47.4091 211.136C48.0811 210.752 48.8731 210.56 49.7851 210.56V213.392H49.0891C48.0171 213.392 47.2011 213.664 46.6411 214.208C46.0971 214.752 45.8251 215.696 45.8251 217.04V224H43.0891V210.776H45.8251V212.696ZM64.42 217.064C64.42 217.56 64.388 218.008 64.324 218.408H54.22C54.3 219.464 54.692 220.312 55.396 220.952C56.1 221.592 56.964 221.912 57.988 221.912C59.46 221.912 60.5 221.296 61.108 220.064H64.06C63.66 221.28 62.932 222.28 61.876 223.064C60.836 223.832 59.54 224.216 57.988 224.216C56.724 224.216 55.588 223.936 54.58 223.376C53.588 222.8 52.804 222 52.228 220.976C51.668 219.936 51.388 218.736 51.388 217.376C51.388 216.016 51.66 214.824 52.204 213.8C52.764 212.76 53.54 211.96 54.532 211.4C55.54 210.84 56.692 210.56 57.988 210.56C59.236 210.56 60.348 210.832 61.324 211.376C62.3 211.92 63.06 212.688 63.604 213.68C64.148 214.656 64.42 215.784 64.42 217.064ZM61.564 216.2C61.548 215.192 61.188 214.384 60.484 213.776C59.78 213.168 58.908 212.864 57.868 212.864C56.924 212.864 56.116 213.168 55.444 213.776C54.772 214.368 54.372 215.176 54.244 216.2H61.564ZM72.2245 221.552L75.9685 210.776H78.8725L73.8325 224H70.5685L65.5525 210.776H68.4805L72.2245 221.552ZM93.0606 217.064C93.0606 217.56 93.0286 218.008 92.9646 218.408H82.8606C82.9406 219.464 83.3326 220.312 84.0366 220.952C84.7406 221.592 85.6046 221.912 86.6286 221.912C88.1006 221.912 89.1406 221.296 89.7486 220.064H92.7006C92.3006 221.28 91.5726 222.28 90.5166 223.064C89.4766 223.832 88.1806 224.216 86.6286 224.216C85.3646 224.216 84.2286 223.936 83.2206 223.376C82.2286 222.8 81.4446 222 80.8686 220.976C80.3086 219.936 80.0286 218.736 80.0286 217.376C80.0286 216.016 80.3006 214.824 80.8446 213.8C81.4046 212.76 82.1806 211.96 83.1726 211.4C84.1806 210.84 85.3326 210.56 86.6286 210.56C87.8766 210.56 88.9886 210.832 89.9646 211.376C90.9406 211.92 91.7006 212.688 92.2446 213.68C92.7886 214.656 93.0606 215.784 93.0606 217.064ZM90.2046 216.2C90.1886 215.192 89.8286 214.384 89.1246 213.776C88.4206 213.168 87.5486 212.864 86.5086 212.864C85.5646 212.864 84.7566 213.168 84.0846 213.776C83.4126 214.368 83.0126 215.176 82.8846 216.2H90.2046ZM102.425 210.56C103.465 210.56 104.393 210.776 105.209 211.208C106.041 211.64 106.689 212.28 107.153 213.128C107.617 213.976 107.849 215 107.849 216.2V224H105.137V216.608C105.137 215.424 104.841 214.52 104.249 213.896C103.657 213.256 102.849 212.936 101.825 212.936C100.801 212.936 99.9851 213.256 99.3771 213.896C98.7851 214.52 98.4891 215.424 98.4891 216.608V224H95.7531V210.776H98.4891V212.288C98.9371 211.744 99.5051 211.32 100.193 211.016C100.897 210.712 101.641 210.56 102.425 210.56ZM123.315 210.776V224H120.579V222.44C120.147 222.984 119.579 223.416 118.875 223.736C118.187 224.04 117.451 224.192 116.667 224.192C115.627 224.192 114.691 223.976 113.859 223.544C113.043 223.112 112.395 222.472 111.915 221.624C111.451 220.776 111.219 219.752 111.219 218.552V210.776H113.931V218.144C113.931 219.328 114.227 220.24 114.819 220.88C115.411 221.504 116.219 221.816 117.243 221.816C118.267 221.816 119.075 221.504 119.667 220.88C120.275 220.24 120.579 219.328 120.579 218.144V210.776H123.315ZM139.045 217.064C139.045 217.56 139.013 218.008 138.949 218.408H128.845C128.925 219.464 129.317 220.312 130.021 220.952C130.725 221.592 131.589 221.912 132.613 221.912C134.085 221.912 135.125 221.296 135.733 220.064H138.685C138.285 221.28 137.557 222.28 136.501 223.064C135.461 223.832 134.165 224.216 132.613 224.216C131.349 224.216 130.213 223.936 129.205 223.376C128.213 222.8 127.429 222 126.853 220.976C126.293 219.936 126.013 218.736 126.013 217.376C126.013 216.016 126.285 214.824 126.829 213.8C127.389 212.76 128.165 211.96 129.157 211.4C130.165 210.84 131.317 210.56 132.613 210.56C133.861 210.56 134.973 210.832 135.949 211.376C136.925 211.92 137.685 212.688 138.229 213.68C138.773 214.656 139.045 215.784 139.045 217.064ZM136.189 216.2C136.173 215.192 135.813 214.384 135.109 213.776C134.405 213.168 133.533 212.864 132.493 212.864C131.549 212.864 130.741 213.168 130.069 213.776C129.397 214.368 128.997 215.176 128.869 216.2H136.189ZM150.708 212.72C151.172 212.112 151.804 211.6 152.604 211.184C153.404 210.768 154.308 210.56 155.316 210.56C156.468 210.56 157.516 210.848 158.46 211.424C159.42 211.984 160.172 212.776 160.716 213.8C161.26 214.824 161.532 216 161.532 217.328C161.532 218.656 161.26 219.848 160.716 220.904C160.172 221.944 159.42 222.76 158.46 223.352C157.516 223.928 156.468 224.216 155.316 224.216C154.308 224.216 153.412 224.016 152.628 223.616C151.844 223.2 151.204 222.688 150.708 222.08V230.288H147.972V210.776H150.708V212.72ZM158.748 217.328C158.748 216.416 158.556 215.632 158.172 214.976C157.804 214.304 157.308 213.8 156.684 213.464C156.076 213.112 155.42 212.936 154.716 212.936C154.028 212.936 153.372 213.112 152.748 213.464C152.14 213.816 151.644 214.328 151.26 215C150.892 215.672 150.708 216.464 150.708 217.376C150.708 218.288 150.892 219.088 151.26 219.776C151.644 220.448 152.14 220.96 152.748 221.312C153.372 221.664 154.028 221.84 154.716 221.84C155.42 221.84 156.076 221.664 156.684 221.312C157.308 220.944 157.804 220.416 158.172 219.728C158.556 219.04 158.748 218.24 158.748 217.328ZM169.974 224.216C168.726 224.216 167.598 223.936 166.59 223.376C165.582 222.8 164.79 222 164.214 220.976C163.638 219.936 163.35 218.736 163.35 217.376C163.35 216.032 163.646 214.84 164.238 213.8C164.83 212.76 165.638 211.96 166.662 211.4C167.686 210.84 168.83 210.56 170.094 210.56C171.358 210.56 172.502 210.84 173.526 211.4C174.55 211.96 175.358 212.76 175.95 213.8C176.542 214.84 176.838 216.032 176.838 217.376C176.838 218.72 176.534 219.912 175.926 220.952C175.318 221.992 174.486 222.8 173.43 223.376C172.39 223.936 171.238 224.216 169.974 224.216ZM169.974 221.84C170.678 221.84 171.334 221.672 171.942 221.336C172.566 221 173.07 220.496 173.454 219.824C173.838 219.152 174.03 218.336 174.03 217.376C174.03 216.416 173.846 215.608 173.478 214.952C173.11 214.28 172.622 213.776 172.014 213.44C171.406 213.104 170.75 212.936 170.046 212.936C169.342 212.936 168.686 213.104 168.078 213.44C167.486 213.776 167.014 214.28 166.662 214.952C166.31 215.608 166.134 216.416 166.134 217.376C166.134 218.8 166.494 219.904 167.214 220.688C167.95 221.456 168.87 221.84 169.974 221.84ZM182.734 213.008V220.328C182.734 220.824 182.846 221.184 183.07 221.408C183.31 221.616 183.71 221.72 184.27 221.72H185.95V224H183.79C182.558 224 181.614 223.712 180.958 223.136C180.302 222.56 179.974 221.624 179.974 220.328V213.008H178.414V210.776H179.974V207.488H182.734V210.776H185.95V213.008H182.734ZM200.592 217.064C200.592 217.56 200.56 218.008 200.496 218.408H190.392C190.472 219.464 190.864 220.312 191.568 220.952C192.272 221.592 193.136 221.912 194.16 221.912C195.632 221.912 196.672 221.296 197.28 220.064H200.232C199.832 221.28 199.104 222.28 198.048 223.064C197.008 223.832 195.712 224.216 194.16 224.216C192.896 224.216 191.76 223.936 190.752 223.376C189.76 222.8 188.976 222 188.4 220.976C187.84 219.936 187.56 218.736 187.56 217.376C187.56 216.016 187.832 214.824 188.376 213.8C188.936 212.76 189.712 211.96 190.704 211.4C191.712 210.84 192.864 210.56 194.16 210.56C195.408 210.56 196.52 210.832 197.496 211.376C198.472 211.92 199.232 212.688 199.776 213.68C200.32 214.656 200.592 215.784 200.592 217.064ZM197.736 216.2C197.72 215.192 197.36 214.384 196.656 213.776C195.952 213.168 195.08 212.864 194.04 212.864C193.096 212.864 192.288 213.168 191.616 213.776C190.944 214.368 190.544 215.176 190.416 216.2H197.736ZM209.956 210.56C210.996 210.56 211.924 210.776 212.74 211.208C213.572 211.64 214.22 212.28 214.684 213.128C215.148 213.976 215.38 215 215.38 216.2V224H212.668V216.608C212.668 215.424 212.372 214.52 211.78 213.896C211.188 213.256 210.38 212.936 209.356 212.936C208.332 212.936 207.516 213.256 206.908 213.896C206.316 214.52 206.02 215.424 206.02 216.608V224H203.284V210.776H206.02V212.288C206.468 211.744 207.036 211.32 207.724 211.016C208.428 210.712 209.172 210.56 209.956 210.56ZM222.062 213.008V220.328C222.062 220.824 222.174 221.184 222.398 221.408C222.638 221.616 223.038 221.72 223.598 221.72H225.278V224H223.118C221.886 224 220.942 223.712 220.286 223.136C219.63 222.56 219.302 221.624 219.302 220.328V213.008H217.742V210.776H219.302V207.488H222.062V210.776H225.278V213.008H222.062ZM229.192 209.024C228.696 209.024 228.28 208.856 227.944 208.52C227.608 208.184 227.44 207.768 227.44 207.272C227.44 206.776 227.608 206.36 227.944 206.024C228.28 205.688 228.696 205.52 229.192 205.52C229.672 205.52 230.08 205.688 230.416 206.024C230.752 206.36 230.92 206.776 230.92 207.272C230.92 207.768 230.752 208.184 230.416 208.52C230.08 208.856 229.672 209.024 229.192 209.024ZM230.536 210.776V224H227.8V210.776H230.536ZM233.216 217.328C233.216 216 233.488 214.824 234.032 213.8C234.592 212.776 235.344 211.984 236.288 211.424C237.248 210.848 238.304 210.56 239.456 210.56C240.496 210.56 241.4 210.768 242.168 211.184C242.952 211.584 243.576 212.088 244.04 212.696V210.776H246.8V224H244.04V222.032C243.576 222.656 242.944 223.176 242.144 223.592C241.344 224.008 240.432 224.216 239.408 224.216C238.272 224.216 237.232 223.928 236.288 223.352C235.344 222.76 234.592 221.944 234.032 220.904C233.488 219.848 233.216 218.656 233.216 217.328ZM244.04 217.376C244.04 216.464 243.848 215.672 243.464 215C243.096 214.328 242.608 213.816 242 213.464C241.392 213.112 240.736 212.936 240.032 212.936C239.328 212.936 238.672 213.112 238.064 213.464C237.456 213.8 236.96 214.304 236.576 214.976C236.208 215.632 236.024 216.416 236.024 217.328C236.024 218.24 236.208 219.04 236.576 219.728C236.96 220.416 237.456 220.944 238.064 221.312C238.688 221.664 239.344 221.84 240.032 221.84C240.736 221.84 241.392 221.664 242 221.312C242.608 220.96 243.096 220.448 243.464 219.776C243.848 219.088 244.04 218.288 244.04 217.376ZM253.13 206.24V224H250.394V206.24H253.13ZM257.826 224.168C257.33 224.168 256.914 224 256.578 223.664C256.242 223.328 256.074 222.912 256.074 222.416C256.074 221.92 256.242 221.504 256.578 221.168C256.914 220.832 257.33 220.664 257.826 220.664C258.306 220.664 258.714 220.832 259.05 221.168C259.386 221.504 259.554 221.92 259.554 222.416C259.554 222.912 259.386 223.328 259.05 223.664C258.714 224 258.306 224.168 257.826 224.168Z" fill="#4D4D4D"/>
<defs>
<clipPath id="clip0_5_254">
<rect width="38" height="38" fill="white" transform="translate(131.5 29)"/>
</clipPath>
</defs>
</svg>
