<svg width="40" height="41" viewBox="0 0 40 41" fill="none" xmlns="http://www.w3.org/2000/svg">
<g id="ic:baseline-phone">
<path id="Vector" d="M11.0333 18.4833C13.4333 23.2 17.3 27.05 22.0167 29.4667L25.6833 25.8C26.1333 25.35 26.8 25.2 27.3833 25.4C29.25 26.0167 31.2667 26.35 33.3333 26.35C34.25 26.35 35 27.1 35 28.0167V33.8333C35 34.75 34.25 35.5 33.3333 35.5C17.6833 35.5 5 22.8167 5 7.16667C5 6.25 5.75 5.5 6.66667 5.5H12.5C13.4167 5.5 14.1667 6.25 14.1667 7.16667C14.1667 9.25 14.5 11.25 15.1167 13.1167C15.3 13.7 15.1667 14.35 14.7 14.8167L11.0333 18.4833Z" fill="black"/>
</g>
</svg>
